<?xml version="1.0" encoding="UTF-8" standalone="no"?><svg xmlns="http://www.w3.org/2000/svg" xmlns:xlink="http://www.w3.org/1999/xlink" clip-rule="evenodd" stroke-miterlimit="4.00" viewBox="0 0 1920 1080"><desc>SVG generated by Keynote</desc><defs></defs><g transform="matrix(1.00, 0.00, -0.00, -1.00, 0.0, 1080.0)"><path d="M 0.0 1080.0 L 1920.0 1080.0 L 1920.0 0.0 L 0.0 0.0 Z M 0.0 1080.0 " fill="#FEFFFE"></path><path d="M 0.7 1080.1 L 1921.3 1080.1 L 1921.3 -0.1 L 0.7 -0.1 Z M 0.7 1080.1 " fill="#000000"></path><g opacity="0.52"><g><clipPath id="clip-239"><path d="M -4.0 1080.0 L 1924.0 1080.0 L 1924.0 0.0 L -4.0 0.0 Z M -3.6 1080.0 "></path></clipPath><g clip-path="url(#clip-239)"><g><clipPath id="clip-240"><path d="M 0.0 0.0 L 1920.0 0.0 L 1920.0 1080.0 L 0.0 1080.0 Z M 0.0 0.0 "></path></clipPath><g clip-path="url(#clip-240)"><image xlink:href="../../C54397AF-3A3C-4E08-8BC0-6C34F0E36A13/assets/B8F9F47F5548781BB96A3C0489A6E7F1.jpeg" width="1152.00" height="768.00" transform="matrix(1.67, 0.00, -0.00, -1.67, -4.0, 1210.0)"></image></g></g></g></g></g><path d="M 0.0 0.0 L 599.7 0.0 " fill="none" stroke="#FDFDFC" stroke-width="4.00" transform="matrix(1.00, 0.00, 0.00, -1.00, 217.1, 650.0)"></path><path d="M 0.0 0.0 L 599.7 0.0 " fill="none" stroke="#FDFDFC" stroke-width="4.00" transform="matrix(1.00, 0.00, 0.00, -1.00, 217.1, 424.0)"></path><path d="M 1920.4 186.4 L 1920.4 -2.0 L 1732.0 -2.0 Z M 1920.4 186.4 " fill="#EA3C43"></path><g><clipPath id="clip-241"><path d="M 1835.0 87.0 L 1897.0 87.0 L 1897.0 26.0 L 1835.0 26.0 Z M 1835.0 87.0 "></path></clipPath><g clip-path="url(#clip-241)"><g><clipPath id="clip-242"><path d="M 1835.0 26.0 L 1897.0 26.0 L 1897.0 87.0 L 1835.0 87.0 Z M 1835.0 26.0 "></path></clipPath><g clip-path="url(#clip-242)"><path d="M 1866.0 30.5 C 1852.4 30.5 1841.1 40.8 1839.8 53.8 L 1850.2 53.8 L 1856.8 42.4 C 1857.2 41.7 1858.0 41.2 1858.8 41.2 C 1858.8 41.2 1858.9 41.2 1858.9 41.2 C 1859.8 41.3 1860.6 41.8 1860.9 42.6 L 1870.9 64.3 L 1875.8 54.9 C 1876.2 54.1 1876.9 53.7 1877.8 53.7 L 1877.8 53.7 C 1877.8 53.7 1886.7 53.7 1892.2 53.7 C 1890.8 40.7 1879.6 30.5 1866.0 30.5 M 1866.0 82.5 C 1880.0 82.5 1891.4 71.7 1892.3 58.2 C 1888.2 58.2 1882.0 58.2 1879.2 58.2 L 1872.8 70.5 C 1872.4 71.3 1871.6 71.8 1870.7 71.8 C 1869.8 71.8 1869.0 71.2 1868.6 70.4 L 1858.6 48.5 L 1853.6 57.2 C 1853.1 57.9 1852.4 58.3 1851.5 58.3 L 1839.7 58.3 C 1840.6 71.8 1852.1 82.5 1866.0 82.5 M 1866.0 87.0 C 1848.9 87.0 1835.0 73.3 1835.0 56.5 C 1835.0 39.7 1848.9 26.0 1866.0 26.0 C 1883.1 26.0 1897.0 39.7 1897.0 56.5 C 1897.0 73.3 1883.1 87.0 1866.0 87.0 " fill="#FFFFFF"></path></g></g></g></g><g><clipPath id="clip-243"><path d="M 1515.0 95.0 L 1796.0 95.0 L 1796.0 156.0 L 1515.0 156.0 Z M 1515.0 95.0 "></path></clipPath><g clip-path="url(#clip-243)"><path d="M 1544.2 155.5 L 1540.7 117.3 L 1537.7 155.5 L 1530.7 155.5 L 1527.1 117.3 L 1524.2 155.5 L 1515.0 155.5 L 1522.0 95.0 L 1529.7 95.0 L 1533.5 128.3 L 1536.8 95.0 L 1544.7 95.0 L 1552.7 155.5 Z M 1544.2 155.5 " fill="#FFFFFF"></path><path d="M 1565.7 95.0 L 1575.1 95.0 L 1575.1 155.5 L 1565.7 155.5 Z M 1565.7 95.0 " fill="#FFFFFF"></path><path d="M 1589.5 155.5 L 1589.5 146.6 L 1600.3 146.6 L 1588.9 98.2 L 1588.9 95.0 L 1610.1 95.0 L 1610.1 103.9 L 1599.2 103.9 L 1610.7 152.3 L 1610.7 155.5 Z M 1589.5 155.5 " fill="#FFFFFF"></path><path d="M 1624.8 155.5 L 1624.8 95.0 L 1644.5 95.0 L 1644.5 104.0 L 1634.2 104.0 L 1634.2 122.0 L 1641.1 122.0 L 1641.1 130.2 L 1634.2 130.2 L 1634.2 146.8 L 1644.5 146.8 L 1644.5 155.5 Z M 1624.8 155.5 " fill="#FFFFFF"></path><path d="M 1660.1 155.5 L 1660.1 95.0 L 1679.0 95.0 L 1679.0 101.3 L 1666.7 101.3 L 1666.7 155.5 Z M 1660.1 155.5 " fill="#FFFFFF"></path><path d="M 1694.7 95.0 L 1701.4 95.0 L 1701.4 155.5 L 1694.7 155.5 Z M 1694.7 95.0 " fill="#FFFFFF"></path><path d="M 1737.2 155.5 L 1737.2 114.6 L 1734.4 124.4 L 1725.0 155.5 L 1719.0 155.5 L 1719.0 95.0 L 1725.3 95.0 L 1725.3 135.3 L 1728.2 125.6 L 1738.5 95.0 L 1743.4 95.0 L 1743.4 155.5 Z M 1737.2 155.5 " fill="#FFFFFF"></path><path d="M 1761.0 155.5 L 1761.0 95.0 L 1780.4 95.0 L 1780.4 101.1 L 1767.6 101.1 L 1767.6 123.3 L 1776.8 123.3 L 1776.8 129.3 L 1767.6 129.3 L 1767.6 149.4 L 1780.4 149.4 L 1780.4 155.5 Z M 1761.0 155.5 " fill="#FFFFFF"></path></g></g><g><clipPath id="clip-244"><path d="M 1515.0 156.0 L 1796.0 156.0 L 1796.0 95.0 L 1515.0 95.0 Z M 1515.0 156.0 "></path></clipPath><g clip-path="url(#clip-244)"><g><clipPath id="clip-245"><path d="M 1515.0 95.0 L 1796.0 95.0 L 1796.0 156.0 L 1515.0 156.0 Z M 1515.0 95.0 "></path></clipPath><g clip-path="url(#clip-245)"><path d="M 1791.5 152.6 L 1791.8 152.6 C 1792.3 152.6 1792.5 152.6 1792.7 152.7 C 1792.8 152.7 1792.9 152.8 1792.9 152.9 C 1793.0 152.9 1793.0 153.0 1793.0 153.2 C 1793.0 153.3 1793.0 153.4 1792.9 153.4 C 1792.9 153.5 1792.8 153.6 1792.7 153.6 C 1792.5 153.7 1792.3 153.7 1791.8 153.7 L 1791.5 153.7 Z M 1790.7 150.4 L 1790.7 154.3 L 1791.5 154.3 C 1792.2 154.3 1792.6 154.3 1792.7 154.3 C 1793.0 154.3 1793.2 154.2 1793.3 154.1 C 1793.5 154.0 1793.6 153.9 1793.7 153.8 C 1793.8 153.6 1793.8 153.4 1793.8 153.2 C 1793.8 152.9 1793.8 152.7 1793.6 152.5 C 1793.4 152.3 1793.1 152.2 1792.8 152.1 C 1792.9 152.1 1793.0 152.0 1793.1 152.0 C 1793.1 151.9 1793.2 151.8 1793.3 151.7 C 1793.4 151.6 1793.5 151.5 1793.6 151.2 L 1794.1 150.4 L 1793.1 150.4 L 1792.8 151.1 C 1792.6 151.5 1792.4 151.8 1792.2 151.9 C 1792.1 152.0 1791.9 152.0 1791.7 152.0 L 1791.5 152.0 L 1791.5 150.4 Z M 1792.4 155.3 C 1791.9 155.3 1791.4 155.2 1790.9 154.9 C 1790.5 154.7 1790.1 154.3 1789.8 153.8 C 1789.6 153.4 1789.4 152.9 1789.4 152.4 C 1789.4 151.9 1789.6 151.4 1789.8 150.9 C 1790.1 150.5 1790.4 150.1 1790.9 149.9 C 1791.4 149.6 1791.9 149.5 1792.4 149.5 C 1792.9 149.5 1793.4 149.6 1793.8 149.9 C 1794.3 150.1 1794.6 150.5 1794.9 150.9 C 1795.2 151.4 1795.3 151.9 1795.3 152.4 C 1795.3 152.9 1795.2 153.4 1794.9 153.8 C 1794.6 154.3 1794.3 154.7 1793.8 154.9 C 1793.3 155.2 1792.9 155.3 1792.4 155.3 M 1792.4 156.0 C 1793.0 156.0 1793.6 155.8 1794.2 155.5 C 1794.7 155.2 1795.2 154.8 1795.5 154.2 C 1795.8 153.6 1796.0 153.0 1796.0 152.4 C 1796.0 151.8 1795.8 151.2 1795.5 150.6 C 1795.2 150.0 1794.7 149.6 1794.2 149.2 C 1793.6 148.9 1793.0 148.8 1792.4 148.8 C 1791.7 148.8 1791.1 148.9 1790.5 149.2 C 1790.0 149.6 1789.5 150.0 1789.2 150.6 C 1788.9 151.2 1788.7 151.8 1788.7 152.4 C 1788.7 153.0 1788.9 153.6 1789.2 154.2 C 1789.5 154.8 1790.0 155.2 1790.6 155.5 C 1791.1 155.8 1791.7 156.0 1792.4 156.0 " fill="#FFFFFF"></path></g></g></g></g><g><clipPath id="clip-246"><path d="M 1515.0 95.0 L 1796.0 95.0 L 1796.0 156.0 L 1515.0 156.0 Z M 1515.0 95.0 "></path></clipPath><g clip-path="url(#clip-246)"><path d="M 1544.2 155.5 L 1540.7 117.3 L 1537.7 155.5 L 1530.7 155.5 L 1527.1 117.3 L 1524.2 155.5 L 1515.0 155.5 L 1522.0 95.0 L 1529.7 95.0 L 1533.5 128.3 L 1536.8 95.0 L 1544.7 95.0 L 1552.7 155.5 Z M 1544.2 155.5 " fill="#FFFFFF"></path><path d="M 1565.7 95.0 L 1575.1 95.0 L 1575.1 155.5 L 1565.7 155.5 Z M 1565.7 95.0 " fill="#FFFFFF"></path><path d="M 1589.5 155.5 L 1589.5 146.6 L 1600.3 146.6 L 1588.9 98.2 L 1588.9 95.0 L 1610.1 95.0 L 1610.1 103.9 L 1599.2 103.9 L 1610.7 152.3 L 1610.7 155.5 Z M 1589.5 155.5 " fill="#FFFFFF"></path><path d="M 1624.8 155.5 L 1624.8 95.0 L 1644.5 95.0 L 1644.5 104.0 L 1634.2 104.0 L 1634.2 122.0 L 1641.1 122.0 L 1641.1 130.2 L 1634.2 130.2 L 1634.2 146.8 L 1644.5 146.8 L 1644.5 155.5 Z M 1624.8 155.5 " fill="#FFFFFF"></path><path d="M 1660.1 155.5 L 1660.1 95.0 L 1679.0 95.0 L 1679.0 101.3 L 1666.7 101.3 L 1666.7 155.5 Z M 1660.1 155.5 " fill="#FFFFFF"></path><path d="M 1694.7 95.0 L 1701.4 95.0 L 1701.4 155.5 L 1694.7 155.5 Z M 1694.7 95.0 " fill="#FFFFFF"></path><path d="M 1737.2 155.5 L 1737.2 114.6 L 1734.4 124.4 L 1725.0 155.5 L 1719.0 155.5 L 1719.0 95.0 L 1725.3 95.0 L 1725.3 135.3 L 1728.2 125.6 L 1738.5 95.0 L 1743.4 95.0 L 1743.4 155.5 Z M 1737.2 155.5 " fill="#FFFFFF"></path><path d="M 1761.0 155.5 L 1761.0 95.0 L 1780.4 95.0 L 1780.4 101.1 L 1767.6 101.1 L 1767.6 123.3 L 1776.8 123.3 L 1776.8 129.3 L 1767.6 129.3 L 1767.6 149.4 L 1780.4 149.4 L 1780.4 155.5 Z M 1761.0 155.5 " fill="#FFFFFF"></path></g></g><g><clipPath id="clip-247"><path d="M 1515.0 156.0 L 1796.0 156.0 L 1796.0 95.0 L 1515.0 95.0 Z M 1515.0 156.0 "></path></clipPath><g clip-path="url(#clip-247)"><g><clipPath id="clip-248"><path d="M 1515.0 95.0 L 1796.0 95.0 L 1796.0 156.0 L 1515.0 156.0 Z M 1515.0 95.0 "></path></clipPath><g clip-path="url(#clip-248)"><path d="M 1791.5 152.6 L 1791.8 152.6 C 1792.3 152.6 1792.5 152.6 1792.7 152.7 C 1792.8 152.7 1792.9 152.8 1792.9 152.9 C 1793.0 152.9 1793.0 153.0 1793.0 153.2 C 1793.0 153.3 1793.0 153.4 1792.9 153.4 C 1792.9 153.5 1792.8 153.6 1792.7 153.6 C 1792.5 153.7 1792.3 153.7 1791.8 153.7 L 1791.5 153.7 Z M 1790.7 150.4 L 1790.7 154.3 L 1791.5 154.3 C 1792.2 154.3 1792.6 154.3 1792.7 154.3 C 1793.0 154.3 1793.2 154.2 1793.3 154.1 C 1793.5 154.0 1793.6 153.9 1793.7 153.8 C 1793.8 153.6 1793.8 153.4 1793.8 153.2 C 1793.8 152.9 1793.8 152.7 1793.6 152.5 C 1793.4 152.3 1793.1 152.2 1792.8 152.1 C 1792.9 152.1 1793.0 152.0 1793.1 152.0 C 1793.1 151.9 1793.2 151.8 1793.3 151.7 C 1793.4 151.6 1793.5 151.5 1793.6 151.2 L 1794.1 150.4 L 1793.1 150.4 L 1792.8 151.1 C 1792.6 151.5 1792.4 151.8 1792.2 151.9 C 1792.1 152.0 1791.9 152.0 1791.7 152.0 L 1791.5 152.0 L 1791.5 150.4 Z M 1792.4 155.3 C 1791.9 155.3 1791.4 155.2 1790.9 154.9 C 1790.5 154.7 1790.1 154.3 1789.8 153.8 C 1789.6 153.4 1789.4 152.9 1789.4 152.4 C 1789.4 151.9 1789.6 151.4 1789.8 150.9 C 1790.1 150.5 1790.4 150.1 1790.9 149.9 C 1791.4 149.6 1791.9 149.5 1792.4 149.5 C 1792.9 149.5 1793.4 149.6 1793.8 149.9 C 1794.3 150.1 1794.6 150.5 1794.9 150.9 C 1795.2 151.4 1795.3 151.9 1795.3 152.4 C 1795.3 152.9 1795.2 153.4 1794.9 153.8 C 1794.6 154.3 1794.3 154.7 1793.8 154.9 C 1793.3 155.2 1792.9 155.3 1792.4 155.3 M 1792.4 156.0 C 1793.0 156.0 1793.6 155.8 1794.2 155.5 C 1794.7 155.2 1795.2 154.8 1795.5 154.2 C 1795.8 153.6 1796.0 153.0 1796.0 152.4 C 1796.0 151.8 1795.8 151.2 1795.5 150.6 C 1795.2 150.0 1794.7 149.6 1794.2 149.2 C 1793.6 148.9 1793.0 148.8 1792.4 148.8 C 1791.7 148.8 1791.1 148.9 1790.5 149.2 C 1790.0 149.6 1789.5 150.0 1789.2 150.6 C 1788.9 151.2 1788.7 151.8 1788.7 152.4 C 1788.7 153.0 1788.9 153.6 1789.2 154.2 C 1789.5 154.8 1790.0 155.2 1790.6 155.5 C 1791.1 155.8 1791.7 156.0 1792.4 156.0 " fill="#FFFFFF"></path></g></g></g></g><text xml:space="preserve" font-family="Knockout-HTF29-JuniorLiteweight" font-size="129.0" fill="#FEFFFE" transform="matrix(1.00, 0.00, -0.00, -1.00, 221.0, 547.0)">T</text><text xml:space="preserve" font-family="Knockout-HTF29-JuniorLiteweight" font-size="129.0" fill="#FEFFFE" transform="matrix(1.00, 0.00, -0.00, -1.00, 268.0, 547.0)">H</text><text xml:space="preserve" font-family="Knockout-HTF29-JuniorLiteweight" font-size="129.0" fill="#FEFFFE" transform="matrix(1.00, 0.00, -0.00, -1.00, 326.8, 547.0)">A</text><text xml:space="preserve" font-family="Knockout-HTF29-JuniorLiteweight" font-size="129.0" fill="#FEFFFE" transform="matrix(1.00, 0.00, -0.00, -1.00, 376.7, 547.0)">N</text><text xml:space="preserve" font-family="Knockout-HTF29-JuniorLiteweight" font-size="129.0" fill="#FEFFFE" transform="matrix(1.00, 0.00, -0.00, -1.00, 435.3, 547.0)">K</text><text xml:space="preserve" font-family="Knockout-HTF29-JuniorLiteweight" font-size="129.0" fill="#FEFFFE" transform="matrix(1.00, 0.00, -0.00, -1.00, 488.5, 547.0)"> </text><g><clipPath id="clip-249"><path d="M 188.9 424.8 L 845.1 424.8 L 845.1 675.8 L 188.9 675.8 Z M 188.9 424.8 "></path></clipPath><g clip-path="url(#clip-249)"><text xml:space="preserve" font-family="Knockout-HTF29-JuniorLiteweight" font-size="129.0" fill="#FEFFFE" transform="matrix(1.00, 0.00, -0.00, -1.00, 221.0, 438.0)">Y</text><text xml:space="preserve" font-family="Knockout-HTF29-JuniorLiteweight" font-size="129.0" fill="#FEFFFE" transform="matrix(1.00, 0.00, -0.00, -1.00, 269.6, 438.0)">O</text><text xml:space="preserve" font-family="Knockout-HTF29-JuniorLiteweight" font-size="129.0" fill="#FEFFFE" transform="matrix(1.00, 0.00, -0.00, -1.00, 325.4, 438.0)">U</text></g></g></g></svg>