<?xml version="1.0" encoding="UTF-8" standalone="no"?><svg xmlns="http://www.w3.org/2000/svg" xmlns:xlink="http://www.w3.org/1999/xlink" clip-rule="evenodd" stroke-miterlimit="4.00" viewBox="0 0 1920 1080"><desc>SVG generated by Keynote</desc><defs></defs><g transform="matrix(1.00, 0.00, -0.00, -1.00, 0.0, 1080.0)"><path d="M 0.0 1080.0 L 1920.0 1080.0 L 1920.0 0.0 L 0.0 0.0 Z M 0.0 1080.0 " fill="#FEFFFE"></path><g><clipPath id="clip-45"><path d="M 0.0 1080.0 L 1920.0 1080.0 L 1920.0 0.0 L 0.0 0.0 Z M 0.0 1080.0 "></path></clipPath><g clip-path="url(#clip-45)"><image xlink:href="../../BC6A2508-F43E-4C08-885D-9AAF49362DD0/assets/768735C7C2F364F00E9EA407402C42BD.jpeg" width="1365.00" height="767.00" transform="matrix(1.41, 0.00, -0.00, -1.41, 0.0, 1080.0)"></image></g></g><path d="M 0.0 0.0 L 599.7 0.0 " fill="none" stroke="#FDFDFC" stroke-width="4.00" transform="matrix(1.00, 0.00, 0.00, -1.00, 660.1, 634.1)"></path><path d="M 0.0 0.0 L 599.7 0.0 " fill="none" stroke="#FDFDFC" stroke-width="4.00" transform="matrix(1.00, 0.00, 0.00, -1.00, 660.1, 408.1)"></path><text xml:space="preserve" font-family="Knockout-HTF29-JuniorLiteweight" font-size="120.0" fill="#FEFFFE" transform="matrix(1.00, 0.00, -0.00, -1.00, 576.0, 531.0)">W</text><text xml:space="preserve" font-family="Knockout-HTF29-JuniorLiteweight" font-size="120.0" fill="#FEFFFE" transform="matrix(1.00, 0.00, -0.00, -1.00, 646.6, 531.0)">H</text><text xml:space="preserve" font-family="Knockout-HTF29-JuniorLiteweight" font-size="120.0" fill="#FEFFFE" transform="matrix(1.00, 0.00, -0.00, -1.00, 701.3, 531.0)">O</text><text xml:space="preserve" font-family="Knockout-HTF29-JuniorLiteweight" font-size="120.0" fill="#FEFFFE" transform="matrix(1.00, 0.00, -0.00, -1.00, 753.1, 531.0)"> </text><text xml:space="preserve" font-family="Knockout-HTF29-JuniorLiteweight" font-size="120.0" fill="#FEFFFE" transform="matrix(1.00, 0.00, -0.00, -1.00, 769.2, 531.0)">H</text><text xml:space="preserve" font-family="Knockout-HTF29-JuniorLiteweight" font-size="120.0" fill="#FEFFFE" transform="matrix(1.00, 0.00, -0.00, -1.00, 823.9, 531.0)">A</text><text xml:space="preserve" font-family="Knockout-HTF29-JuniorLiteweight" font-size="120.0" fill="#FEFFFE" transform="matrix(1.00, 0.00, -0.00, -1.00, 870.4, 531.0)">S</text><text xml:space="preserve" font-family="Knockout-HTF29-JuniorLiteweight" font-size="120.0" fill="#FEFFFE" transform="matrix(1.00, 0.00, -0.00, -1.00, 918.0, 531.0)"> </text><text xml:space="preserve" font-family="Knockout-HTF29-JuniorLiteweight" font-size="120.0" fill="#FEFFFE" transform="matrix(1.00, 0.00, -0.00, -1.00, 934.1, 531.0)">E</text><text xml:space="preserve" font-family="Knockout-HTF29-JuniorLiteweight" font-size="120.0" fill="#FEFFFE" transform="matrix(1.00, 0.00, -0.00, -1.00, 977.6, 531.0)">X</text><text xml:space="preserve" font-family="Knockout-HTF29-JuniorLiteweight" font-size="120.0" fill="#FEFFFE" transform="matrix(1.00, 0.00, -0.00, -1.00, 1025.9, 531.0)">P</text><text xml:space="preserve" font-family="Knockout-HTF29-JuniorLiteweight" font-size="120.0" fill="#FEFFFE" transform="matrix(1.00, 0.00, -0.00, -1.00, 1073.9, 531.0)">E</text><text xml:space="preserve" font-family="Knockout-HTF29-JuniorLiteweight" font-size="120.0" fill="#FEFFFE" transform="matrix(1.00, 0.00, -0.00, -1.00, 1117.4, 531.0)">R</text><text xml:space="preserve" font-family="Knockout-HTF29-JuniorLiteweight" font-size="120.0" fill="#FEFFFE" transform="matrix(1.00, 0.00, -0.00, -1.00, 1168.0, 531.0)">I</text><text xml:space="preserve" font-family="Knockout-HTF29-JuniorLiteweight" font-size="120.0" fill="#FEFFFE" transform="matrix(1.00, 0.00, -0.00, -1.00, 1188.6, 531.0)">E</text><text xml:space="preserve" font-family="Knockout-HTF29-JuniorLiteweight" font-size="120.0" fill="#FEFFFE" transform="matrix(1.00, 0.00, -0.00, -1.00, 1232.2, 531.0)">N</text><text xml:space="preserve" font-family="Knockout-HTF29-JuniorLiteweight" font-size="120.0" fill="#FEFFFE" transform="matrix(1.00, 0.00, -0.00, -1.00, 1286.6, 531.0)">C</text><text xml:space="preserve" font-family="Knockout-HTF29-JuniorLiteweight" font-size="120.0" fill="#FEFFFE" transform="matrix(1.00, 0.00, -0.00, -1.00, 1336.3, 531.0)">E</text><text xml:space="preserve" font-family="Knockout-HTF29-JuniorLiteweight" font-size="120.0" fill="#FEFFFE" transform="matrix(1.00, 0.00, -0.00, -1.00, 1379.9, 531.0)"> </text><g><clipPath id="clip-46"><path d="M 532.6 408.5 L 1423.5 408.5 L 1423.5 651.5 L 532.6 651.5 Z M 532.6 408.5 "></path></clipPath><g clip-path="url(#clip-46)"><text xml:space="preserve" font-family="Knockout-HTF29-JuniorLiteweight" font-size="120.0" fill="#FEFFFE" transform="matrix(1.00, 0.00, -0.00, -1.00, 610.0, 431.0)">W</text><text xml:space="preserve" font-family="Knockout-HTF29-JuniorLiteweight" font-size="120.0" fill="#FEFFFE" transform="matrix(1.00, 0.00, -0.00, -1.00, 680.6, 431.0)">I</text><text xml:space="preserve" font-family="Knockout-HTF29-JuniorLiteweight" font-size="120.0" fill="#FEFFFE" transform="matrix(1.00, 0.00, -0.00, -1.00, 701.2, 431.0)">T</text><text xml:space="preserve" font-family="Knockout-HTF29-JuniorLiteweight" font-size="120.0" fill="#FEFFFE" transform="matrix(1.00, 0.00, -0.00, -1.00, 744.9, 431.0)">H</text><text xml:space="preserve" font-family="Knockout-HTF29-JuniorLiteweight" font-size="120.0" fill="#FEFFFE" transform="matrix(1.00, 0.00, -0.00, -1.00, 799.6, 431.0)"> </text><text xml:space="preserve" font-family="Knockout-HTF29-JuniorLiteweight" font-size="120.0" fill="#FEFFFE" transform="matrix(1.00, 0.00, -0.00, -1.00, 815.7, 431.0)">W</text><text xml:space="preserve" font-family="Knockout-HTF29-JuniorLiteweight" font-size="120.0" fill="#FEFFFE" transform="matrix(1.00, 0.00, -0.00, -1.00, 886.2, 431.0)">E</text><text xml:space="preserve" font-family="Knockout-HTF29-JuniorLiteweight" font-size="120.0" fill="#FEFFFE" transform="matrix(1.00, 0.00, -0.00, -1.00, 929.8, 431.0)">B</text><text xml:space="preserve" font-family="Knockout-HTF29-JuniorLiteweight" font-size="120.0" fill="#FEFFFE" transform="matrix(1.00, 0.00, -0.00, -1.00, 979.7, 431.0)"> </text><text xml:space="preserve" font-family="Knockout-HTF29-JuniorLiteweight" font-size="120.0" fill="#FEFFFE" transform="matrix(1.00, 0.00, -0.00, -1.00, 995.8, 431.0)">S</text><text xml:space="preserve" font-family="Knockout-HTF29-JuniorLiteweight" font-size="120.0" fill="#FEFFFE" transform="matrix(1.00, 0.00, -0.00, -1.00, 1043.4, 431.0)">E</text><text xml:space="preserve" font-family="Knockout-HTF29-JuniorLiteweight" font-size="120.0" fill="#FEFFFE" transform="matrix(1.00, 0.00, -0.00, -1.00, 1087.0, 431.0)">R</text><text xml:space="preserve" font-family="Knockout-HTF29-JuniorLiteweight" font-size="120.0" fill="#FEFFFE" transform="matrix(1.00, 0.00, -0.00, -1.00, 1137.5, 431.0)">V</text><text xml:space="preserve" font-family="Knockout-HTF29-JuniorLiteweight" font-size="120.0" fill="#FEFFFE" transform="matrix(1.00, 0.00, -0.00, -1.00, 1185.4, 431.0)">I</text><text xml:space="preserve" font-family="Knockout-HTF29-JuniorLiteweight" font-size="120.0" fill="#FEFFFE" transform="matrix(1.00, 0.00, -0.00, -1.00, 1206.0, 431.0)">C</text><text xml:space="preserve" font-family="Knockout-HTF29-JuniorLiteweight" font-size="120.0" fill="#FEFFFE" transform="matrix(1.00, 0.00, -0.00, -1.00, 1255.7, 431.0)">E</text><text xml:space="preserve" font-family="Knockout-HTF29-JuniorLiteweight" font-size="120.0" fill="#FEFFFE" transform="matrix(1.00, 0.00, -0.00, -1.00, 1299.3, 431.0)">S</text></g></g></g></svg>