<?xml version="1.0" encoding="UTF-8" standalone="no"?><svg xmlns="http://www.w3.org/2000/svg" xmlns:xlink="http://www.w3.org/1999/xlink" clip-rule="evenodd" stroke-miterlimit="4.00" viewBox="0 0 286 286"><desc>SVG generated by Keynote</desc><defs></defs><g transform="matrix(1.00, 0.00, -0.00, -1.00, 0.0, 286.0)"><g><clipPath id="clip-185"><path d="M 285.8 143.0 L 143.0 285.8 L 0.2 143.0 L 143.0 0.2 Z M 285.8 143.0 "></path></clipPath><g clip-path="url(#clip-185)"><path d="M 284.4 143.0 L 143.0 1.6 L 1.6 143.0 L 284.4 143.0 Z M 284.4 143.0 " fill="#EA3C43"></path></g></g><g><clipPath id="clip-186"><path d="M 112.0 103.0 L 174.0 103.0 L 174.0 42.0 L 112.0 42.0 Z M 112.0 103.0 "></path></clipPath><g clip-path="url(#clip-186)"><g><clipPath id="clip-187"><path d="M 112.3 42.0 L 173.7 42.0 L 173.7 103.0 L 112.3 103.0 Z M 112.3 42.0 "></path></clipPath><g clip-path="url(#clip-187)"><path d="M 143.0 46.5 C 129.4 46.5 118.1 56.8 116.8 69.8 L 127.2 69.8 L 133.8 58.4 C 134.2 57.7 135.0 57.2 135.8 57.2 C 135.8 57.2 135.9 57.2 135.9 57.2 C 136.8 57.3 137.6 57.8 137.9 58.6 L 147.9 80.3 L 152.8 70.9 C 153.2 70.1 153.9 69.7 154.8 69.7 L 154.8 69.7 C 154.8 69.7 163.7 69.7 169.2 69.7 C 167.8 56.7 156.6 46.5 143.0 46.5 M 143.0 98.5 C 157.0 98.5 168.4 87.7 169.3 74.2 C 165.2 74.2 159.0 74.2 156.2 74.2 L 149.8 86.5 C 149.4 87.3 148.6 87.8 147.7 87.8 C 146.8 87.8 146.0 87.2 145.6 86.4 L 135.6 64.5 L 130.6 73.2 C 130.1 73.9 129.4 74.3 128.5 74.3 L 116.7 74.3 C 117.6 87.8 129.1 98.5 143.0 98.5 M 143.0 103.0 C 125.9 103.0 112.0 89.3 112.0 72.5 C 112.0 55.7 125.9 42.0 143.0 42.0 C 160.1 42.0 174.0 55.7 174.0 72.5 C 174.0 89.3 160.1 103.0 143.0 103.0 " fill="#FFFFFF"></path></g></g></g></g></g></svg>