<?xml version="1.0" encoding="UTF-8" standalone="no"?><svg xmlns="http://www.w3.org/2000/svg" xmlns:xlink="http://www.w3.org/1999/xlink" clip-rule="evenodd" stroke-miterlimit="4.00" viewBox="0 0 496 52"><desc>SVG generated by Keynote</desc><defs></defs><g transform="matrix(1.00, 0.00, -0.00, -1.00, 0.0, 52.0)"><path d="M 0.1 67.1 L 495.7 67.1 L 495.7 -14.9 L 0.1 -14.9 Z M 0.1 67.1 " fill="#000000" fill-opacity="0.00"></path><text xml:space="preserve" font-family="Montserrat-Bold" font-weight="bold" font-size="67.0" fill="#1B1D22" transform="matrix(1.00, 0.00, -0.00, -1.00, 0.0, 2.0)">T</text><text xml:space="preserve" font-family="Montserrat-Bold" font-weight="bold" font-size="67.0" fill="#1B1D22" transform="matrix(1.00, 0.00, -0.00, -1.00, 38.7, 2.0)">H</text><text xml:space="preserve" font-family="Montserrat-Bold" font-weight="bold" font-size="67.0" fill="#1B1D22" transform="matrix(1.00, 0.00, -0.00, -1.00, 87.8, 2.0)">E</text><text xml:space="preserve" font-family="Montserrat-Bold" font-weight="bold" font-size="67.0" fill="#1B1D22" transform="matrix(1.00, 0.00, -0.00, -1.00, 129.6, 2.0)">Y</text><text xml:space="preserve" font-family="Montserrat-Bold" font-weight="bold" font-size="67.0" fill="#1B1D22" transform="matrix(1.00, 0.00, -0.00, -1.00, 169.0, 2.0)"> </text><text xml:space="preserve" font-family="Montserrat-Bold" font-weight="bold" font-size="67.0" fill="#1B1D22" transform="matrix(1.00, 0.00, -0.00, -1.00, 184.7, 2.0)">A</text><text xml:space="preserve" font-family="Montserrat-Bold" font-weight="bold" font-size="67.0" fill="#1B1D22" transform="matrix(1.00, 0.00, -0.00, -1.00, 232.6, 2.0)">R</text><text xml:space="preserve" font-family="Montserrat-Bold" font-weight="bold" font-size="67.0" fill="#1B1D22" transform="matrix(1.00, 0.00, -0.00, -1.00, 279.3, 2.0)">E</text><text xml:space="preserve" font-family="Montserrat-Bold" font-weight="bold" font-size="67.0" fill="#1B1D22" transform="matrix(1.00, 0.00, -0.00, -1.00, 321.1, 2.0)"> </text><text xml:space="preserve" font-family="Montserrat-Bold" font-weight="bold" font-size="67.0" fill="#1B1D22" transform="matrix(1.00, 0.00, -0.00, -1.00, 336.7, 2.0)">H</text><text xml:space="preserve" font-family="Montserrat-Bold" font-weight="bold" font-size="67.0" fill="#1B1D22" transform="matrix(1.00, 0.00, -0.00, -1.00, 385.8, 2.0)">O</text><text xml:space="preserve" font-family="Montserrat-Bold" font-weight="bold" font-size="67.0" fill="#1B1D22" transform="matrix(1.00, 0.00, -0.00, -1.00, 437.8, 2.0)">T</text><text xml:space="preserve" font-family="Montserrat-Bold" font-weight="bold" font-size="67.0" fill="#1B1D22" transform="matrix(1.00, 0.00, -0.00, -1.00, 476.6, 2.0)">!</text></g></svg>