<?xml version="1.0" encoding="UTF-8" standalone="no"?><svg xmlns="http://www.w3.org/2000/svg" xmlns:xlink="http://www.w3.org/1999/xlink" clip-rule="evenodd" stroke-miterlimit="4.00" viewBox="0 0 1920 1080"><desc>SVG generated by Keynote</desc><defs></defs><g transform="matrix(1.00, 0.00, -0.00, -1.00, 0.0, 1080.0)"><path d="M 0.0 1080.0 L 1920.0 1080.0 L 1920.0 0.0 L 0.0 0.0 Z M 0.0 1080.0 " fill="#FEFFFE"></path><path d="M -0.3 1016.4 L 99.7 1016.4 L 99.7 901.1 L -0.3 901.1 Z M -0.3 1016.4 " fill="#F23C48"></path><g><clipPath id="clip-223"><path d="M 21.0 987.0 L 78.0 987.0 L 78.0 931.0 L 21.0 931.0 Z M 21.4 987.0 "></path></clipPath><g clip-path="url(#clip-223)"><g><clipPath id="clip-224"><path d="M 21.0 987.0 L 78.0 987.0 L 78.0 930.0 L 21.0 930.0 Z M 21.0 987.0 "></path></clipPath><g clip-path="url(#clip-224)"><g><clipPath id="clip-225"><path d="M 21.0 930.0 L 78.0 930.0 L 78.0 987.0 L 21.0 987.0 Z M 21.0 930.0 "></path></clipPath><g clip-path="url(#clip-225)"><path d="M 49.5 934.2 C 37.0 934.2 26.6 943.8 25.4 956.0 L 35.0 956.0 L 41.0 945.3 C 41.4 944.6 42.1 944.2 42.9 944.2 C 42.9 944.2 43.0 944.2 43.0 944.2 C 43.8 944.3 44.5 944.7 44.8 945.5 L 54.0 965.8 L 58.5 957.0 C 58.8 956.3 59.6 955.9 60.4 955.9 L 60.4 955.9 C 60.4 955.9 68.6 955.9 73.6 955.9 C 72.3 943.7 62.0 934.2 49.5 934.2 M 49.5 982.8 C 62.3 982.8 72.9 972.7 73.7 960.1 C 69.9 960.1 64.2 960.1 61.7 960.1 L 55.7 971.6 C 55.4 972.3 54.6 972.8 53.8 972.8 C 53.0 972.8 52.2 972.3 51.9 971.5 L 42.7 951.0 L 38.1 959.1 C 37.7 959.8 37.0 960.2 36.2 960.2 L 25.3 960.2 C 26.2 972.8 36.7 982.8 49.5 982.8 M 49.5 987.0 C 33.8 987.0 21.0 974.2 21.0 958.5 C 21.0 942.8 33.8 930.0 49.5 930.0 C 65.2 930.0 78.0 942.8 78.0 958.5 C 78.0 974.2 65.2 987.0 49.5 987.0 " fill="#FFFFFF"></path></g></g></g></g></g></g><image xlink:href="../../3E5C0EDF-3C5B-435B-A73A-DA076292CA0B/assets/A7227E5DB28FD79E5C8B7AA36829455D.png" width="1268.00" height="637.00" transform="matrix(1.00, 0.00, -0.00, -1.00, 325.4, 839.3)" opacity="0.60"></image><g><clipPath id="clip-226"><path d="M 341.0 833.0 L 1579.0 833.0 L 1579.0 227.0 L 341.0 227.0 Z M 340.8 833.3 "></path></clipPath><g clip-path="url(#clip-226)"><g><clipPath id="clip-227"><path d="M 468.8 237.0 C 458.9 247.9 459.1 249.2 473.9 268.4 C 491.0 290.7 488.1 297.0 457.3 304.3 C 439.4 308.5 404.9 331.8 387.2 351.7 C 381.4 358.1 368.7 378.7 358.9 397.4 C 343.5 426.9 341.1 437.8 340.8 479.5 C 340.3 545.8 355.9 586.5 393.5 616.9 C 440.7 655.2 513.8 674.0 577.2 664.2 C 620.9 657.5 650.4 644.3 680.4 618.2 C 699.2 601.8 725.2 558.8 725.2 544.0 C 725.2 540.6 729.2 530.2 734.0 520.9 C 745.5 499.1 745.2 468.3 733.1 425.1 C 721.1 382.1 699.2 355.0 657.2 331.1 C 639.4 321.0 624.9 310.3 624.9 307.4 C 624.9 295.6 654.4 283.3 678.6 285.1 C 703.1 286.8 703.4 286.6 704.0 267.3 C 704.4 251.9 701.6 246.5 690.9 242.5 C 670.7 234.9 639.9 236.2 600.5 246.3 C 547.5 260.0 529.1 259.0 505.6 241.2 C 481.1 222.6 481.8 222.7 468.8 237.0 M 872.1 377.3 C 840.5 384.9 815.3 408.4 804.4 440.3 C 794.4 469.5 794.4 471.9 804.6 499.2 C 810.4 514.8 826.1 538.9 839.4 552.7 C 860.1 574.1 862.6 579.2 856.4 587.8 C 842.6 607.0 835.7 627.3 832.9 657.1 C 830.4 684.3 831.8 688.9 849.0 708.3 C 884.5 748.5 941.8 749.3 978.5 710.1 C 999.4 687.7 1003.1 635.8 985.4 612.0 C 978.3 602.6 973.8 592.8 975.3 590.4 C 976.8 588.0 989.9 577.5 1004.4 567.2 C 1034.8 545.5 1036.8 546.5 1053.4 593.5 C 1062.0 617.6 1068.0 625.4 1081.5 630.1 C 1113.1 641.1 1126.4 637.9 1130.3 618.6 C 1135.1 594.9 1134.9 594.5 1120.0 587.0 C 1111.1 582.5 1102.4 567.2 1093.0 539.5 C 1079.3 499.0 1079.3 498.6 1090.8 487.2 C 1101.1 477.0 1105.9 476.3 1134.5 481.5 L 1166.7 487.3 L 1172.1 460.1 L 1177.5 432.8 L 1128.3 422.6 L 1079.0 412.5 L 1060.9 427.6 L 1042.9 442.7 L 1025.9 430.6 C 1016.5 424.0 1007.3 416.1 1005.4 413.1 C 1003.5 410.1 984.7 399.6 963.5 389.9 C 926.1 372.7 903.9 369.6 872.1 377.3 M 1220.9 450.1 C 1220.9 458.3 1219.4 468.9 1217.6 473.6 C 1215.4 479.4 1220.1 484.2 1232.0 488.3 C 1247.0 493.5 1250.1 498.2 1252.8 519.8 C 1254.6 533.8 1260.6 579.5 1266.1 621.4 C 1271.6 663.4 1276.3 706.9 1276.5 718.2 C 1277.0 738.6 1276.9 738.7 1252.5 737.6 C 1230.7 736.7 1227.5 738.3 1224.2 751.5 C 1221.6 761.7 1223.4 768.5 1229.9 773.3 C 1235.2 777.1 1238.6 783.8 1237.6 788.2 C 1236.2 794.1 1259.0 800.2 1328.3 812.4 C 1379.2 821.3 1426.2 830.3 1432.8 832.3 C 1442.9 835.5 1445.9 832.0 1453.1 807.9 L 1461.4 779.8 L 1442.0 773.9 C 1431.3 770.7 1420.8 766.3 1418.6 764.1 C 1416.5 761.9 1428.2 737.4 1444.7 709.7 C 1461.2 681.9 1474.7 657.8 1474.7 656.1 C 1474.7 654.4 1485.3 637.5 1498.3 618.5 C 1511.3 599.5 1521.9 582.2 1521.9 580.1 C 1521.9 578.0 1527.5 568.6 1534.3 559.1 C 1542.9 547.1 1549.9 542.9 1557.4 545.2 C 1565.7 547.8 1569.6 543.9 1574.9 527.9 C 1578.7 516.6 1580.3 504.9 1578.5 502.0 C 1575.1 496.6 1485.2 475.1 1441.5 469.3 C 1417.2 466.1 1417.1 466.2 1411.2 489.3 C 1405.8 510.6 1406.3 512.9 1417.8 516.4 C 1443.0 524.1 1445.3 529.9 1432.5 553.0 C 1414.4 585.4 1413.6 585.7 1374.8 577.5 C 1333.4 568.8 1325.8 561.8 1324.9 531.9 C 1324.3 511.1 1325.2 510.0 1343.3 509.7 C 1367.7 509.2 1371.6 505.1 1372.0 477.7 L 1372.0 455.1 L 1336.4 449.0 C 1316.7 445.7 1282.7 441.2 1260.8 439.0 C 1220.9 435.1 1220.9 435.1 1220.9 450.1 "></path></clipPath><g clip-path="url(#clip-227)"><image xlink:href="../../3E5C0EDF-3C5B-435B-A73A-DA076292CA0B/assets/57A76BEE7331C7EE46BE95D0203C78EE.png" width="640.00" height="300.00" transform="matrix(2.29, 0.00, -0.00, -2.29, 235.0, 853.0)"></image></g></g></g></g></g></svg>