<?xml version="1.0" encoding="UTF-8" standalone="no"?><svg xmlns="http://www.w3.org/2000/svg" xmlns:xlink="http://www.w3.org/1999/xlink" clip-rule="evenodd" stroke-miterlimit="4.00" viewBox="0 0 1920 1080"><desc>SVG generated by Keynote</desc><defs></defs><g transform="matrix(1.00, 0.00, -0.00, -1.00, 0.0, 1080.0)"><path d="M 0.0 1080.0 L 1920.0 1080.0 L 1920.0 0.0 L 0.0 0.0 Z M 0.0 1080.0 " fill="#202732"></path><g opacity="0.50"><g><clipPath id="clip-0"><path d="M 0.0 1080.0 L 1920.0 1080.0 L 1920.0 0.0 L 0.0 0.0 Z M 0.0 1080.0 "></path></clipPath><g clip-path="url(#clip-0)"><g><clipPath id="clip-1"><path d="M 0.0 0.0 L 1920.0 0.0 L 1920.0 1080.0 L 0.0 1080.0 Z M 0.0 0.0 "></path></clipPath><g clip-path="url(#clip-1)"><image xlink:href="20EF83636CF545CA6181B157E785BE85.jpeg" width="1151.00" height="768.00" transform="matrix(1.67, 0.00, -0.00, -1.67, 0.0, 1181.0)"></image></g></g></g></g></g><g><clipPath id="clip-2"><path d="M 425.8 1080.0 L 283.0 1222.8 L 140.2 1080.0 L 283.0 937.2 Z M 425.8 1080.0 "></path></clipPath><g clip-path="url(#clip-2)"><path d="M 424.4 1080.0 L 283.0 938.6 L 141.6 1080.0 L 424.4 1080.0 Z M 424.4 1080.0 " fill="#EA3C43"></path></g></g><g><clipPath id="clip-3"><path d="M 252.0 1040.0 L 314.0 1040.0 L 314.0 979.0 L 252.0 979.0 Z M 252.0 1040.0 "></path></clipPath><g clip-path="url(#clip-3)"><g><clipPath id="clip-4"><path d="M 252.3 979.0 L 313.7 979.0 L 313.7 1040.0 L 252.3 1040.0 Z M 252.3 979.0 "></path></clipPath><g clip-path="url(#clip-4)"><path d="M 283.0 983.5 C 269.4 983.5 258.1 993.8 256.8 1006.8 L 267.2 1006.8 L 273.8 995.4 C 274.2 994.7 275.0 994.2 275.8 994.2 C 275.8 994.2 275.9 994.2 275.9 994.2 C 276.8 994.3 277.6 994.8 277.9 995.6 L 287.9 1017.3 L 292.8 1007.9 C 293.2 1007.1 293.9 1006.7 294.8 1006.7 L 294.8 1006.7 C 294.8 1006.7 303.7 1006.7 309.2 1006.7 C 307.8 993.7 296.6 983.5 283.0 983.5 M 283.0 1035.5 C 297.0 1035.5 308.4 1024.7 309.3 1011.2 C 305.2 1011.2 299.0 1011.2 296.2 1011.2 L 289.8 1023.5 C 289.4 1024.3 288.6 1024.8 287.7 1024.8 C 286.8 1024.8 286.0 1024.2 285.6 1023.4 L 275.6 1001.5 L 270.6 1010.2 C 270.1 1010.9 269.4 1011.3 268.5 1011.3 L 256.7 1011.3 C 257.6 1024.8 269.1 1035.5 283.0 1035.5 M 283.0 1040.0 C 265.9 1040.0 252.0 1026.3 252.0 1009.5 C 252.0 992.7 265.9 979.0 283.0 979.0 C 300.1 979.0 314.0 992.7 314.0 1009.5 C 314.0 1026.3 300.1 1040.0 283.0 1040.0 " fill="#FFFFFF"></path></g></g></g></g><text xml:space="preserve" font-family="Karla-Regular" font-size="22.0" fill="#AEAFAE" transform="matrix(1.00, 0.00, -0.00, -1.00, 89.0, 100.0)">w</text><text xml:space="preserve" font-family="Karla-Regular" font-size="22.0" fill="#AEAFAE" transform="matrix(1.00, 0.00, -0.00, -1.00, 106.1, 100.0)">i</text><text xml:space="preserve" font-family="Karla-Regular" font-size="22.0" fill="#AEAFAE" transform="matrix(1.00, 0.00, -0.00, -1.00, 113.7, 100.0)">z</text><text xml:space="preserve" font-family="Karla-Regular" font-size="22.0" fill="#AEAFAE" transform="matrix(1.00, 0.00, -0.00, -1.00, 125.3, 100.0)">e</text><text xml:space="preserve" font-family="Karla-Regular" font-size="22.0" fill="#AEAFAE" transform="matrix(1.00, 0.00, -0.00, -1.00, 137.7, 100.0)">l</text><text xml:space="preserve" font-family="Karla-Regular" font-size="22.0" fill="#AEAFAE" transform="matrix(1.00, 0.00, -0.00, -1.00, 145.0, 100.0)">i</text><text xml:space="preserve" font-family="Karla-Regular" font-size="22.0" fill="#AEAFAE" transform="matrix(1.00, 0.00, -0.00, -1.00, 152.6, 100.0)">n</text><text xml:space="preserve" font-family="Karla-Regular" font-size="22.0" fill="#AEAFAE" transform="matrix(1.00, 0.00, -0.00, -1.00, 167.0, 100.0)">e</text><text xml:space="preserve" font-family="Karla-Regular" font-size="22.0" fill="#AEAFAE" transform="matrix(1.00, 0.00, -0.00, -1.00, 179.4, 100.0)">.</text><text xml:space="preserve" font-family="Karla-Regular" font-size="22.0" fill="#AEAFAE" transform="matrix(1.00, 0.00, -0.00, -1.00, 184.5, 100.0)">c</text><text xml:space="preserve" font-family="Karla-Regular" font-size="22.0" fill="#AEAFAE" transform="matrix(1.00, 0.00, -0.00, -1.00, 196.9, 100.0)">o</text><text xml:space="preserve" font-family="Karla-Regular" font-size="22.0" fill="#AEAFAE" transform="matrix(1.00, 0.00, -0.00, -1.00, 210.0, 100.0)">m</text><text xml:space="preserve" font-family="Karla-Regular" font-size="22.0" fill="#AEAFAE" transform="matrix(1.00, 0.00, -0.00, -1.00, 231.7, 100.0)"> </text><text xml:space="preserve" font-family="Karla-Regular" font-size="22.0" fill="#AEAFAE" transform="matrix(1.00, 0.00, -0.00, -1.00, 238.0, 100.0)"> </text><text xml:space="preserve" font-family="Karla-Regular" font-size="22.0" fill="#AEAFAE" transform="matrix(1.00, 0.00, -0.00, -1.00, 244.4, 100.0)">|</text><text xml:space="preserve" font-family="Karla-Regular" font-size="22.0" fill="#AEAFAE" transform="matrix(1.00, 0.00, -0.00, -1.00, 251.6, 100.0)"> </text><text xml:space="preserve" font-family="Karla-Regular" font-size="22.0" fill="#AEAFAE" transform="matrix(1.00, 0.00, -0.00, -1.00, 258.0, 100.0)"> </text><text xml:space="preserve" font-family="Karla-Regular" font-size="22.0" fill="#AEAFAE" transform="matrix(1.00, 0.00, -0.00, -1.00, 264.3, 100.0)">c</text><text xml:space="preserve" font-family="Karla-Regular" font-size="22.0" fill="#AEAFAE" transform="matrix(1.00, 0.00, -0.00, -1.00, 276.7, 100.0)">o</text><text xml:space="preserve" font-family="Karla-Regular" font-size="22.0" fill="#AEAFAE" transform="matrix(1.00, 0.00, -0.00, -1.00, 289.8, 100.0)">n</text><text xml:space="preserve" font-family="Karla-Regular" font-size="22.0" fill="#AEAFAE" transform="matrix(1.00, 0.00, -0.00, -1.00, 304.2, 100.0)">f</text><text xml:space="preserve" font-family="Karla-Regular" font-size="22.0" fill="#AEAFAE" transform="matrix(1.00, 0.00, -0.00, -1.00, 312.9, 100.0)">i</text><text xml:space="preserve" font-family="Karla-Regular" font-size="22.0" fill="#AEAFAE" transform="matrix(1.00, 0.00, -0.00, -1.00, 320.5, 100.0)">d</text><text xml:space="preserve" font-family="Karla-Regular" font-size="22.0" fill="#AEAFAE" transform="matrix(1.00, 0.00, -0.00, -1.00, 334.7, 100.0)">e</text><text xml:space="preserve" font-family="Karla-Regular" font-size="22.0" fill="#AEAFAE" transform="matrix(1.00, 0.00, -0.00, -1.00, 347.1, 100.0)">n</text><text xml:space="preserve" font-family="Karla-Regular" font-size="22.0" fill="#AEAFAE" transform="matrix(1.00, 0.00, -0.00, -1.00, 361.5, 100.0)">t</text><text xml:space="preserve" font-family="Karla-Regular" font-size="22.0" fill="#AEAFAE" transform="matrix(1.00, 0.00, -0.00, -1.00, 370.9, 100.0)">i</text><text xml:space="preserve" font-family="Karla-Regular" font-size="22.0" fill="#AEAFAE" transform="matrix(1.00, 0.00, -0.00, -1.00, 378.5, 100.0)">a</text><text xml:space="preserve" font-family="Karla-Regular" font-size="22.0" fill="#AEAFAE" transform="matrix(1.00, 0.00, -0.00, -1.00, 392.0, 100.0)">l</text><text xml:space="preserve" font-family="Karla-Regular" font-size="22.0" fill="#AEAFAE" transform="matrix(1.00, 0.00, -0.00, -1.00, 399.2, 100.0)"> </text><text xml:space="preserve" font-family="Karla-Regular" font-size="22.0" fill="#AEAFAE" transform="matrix(1.00, 0.00, -0.00, -1.00, 405.6, 100.0)">-</text><text xml:space="preserve" font-family="Karla-Regular" font-size="22.0" fill="#AEAFAE" transform="matrix(1.00, 0.00, -0.00, -1.00, 414.3, 100.0)"> </text><text xml:space="preserve" font-family="Karla-Regular" font-size="22.0" fill="#AEAFAE" transform="matrix(1.00, 0.00, -0.00, -1.00, 420.7, 100.0)">d</text><text xml:space="preserve" font-family="Karla-Regular" font-size="22.0" fill="#AEAFAE" transform="matrix(1.00, 0.00, -0.00, -1.00, 434.8, 100.0)">o</text><text xml:space="preserve" font-family="Karla-Regular" font-size="22.0" fill="#AEAFAE" transform="matrix(1.00, 0.00, -0.00, -1.00, 448.0, 100.0)"> </text><text xml:space="preserve" font-family="Karla-Regular" font-size="22.0" fill="#AEAFAE" transform="matrix(1.00, 0.00, -0.00, -1.00, 454.3, 100.0)">n</text><text xml:space="preserve" font-family="Karla-Regular" font-size="22.0" fill="#AEAFAE" transform="matrix(1.00, 0.00, -0.00, -1.00, 468.7, 100.0)">o</text><text xml:space="preserve" font-family="Karla-Regular" font-size="22.0" fill="#AEAFAE" transform="matrix(1.00, 0.00, -0.00, -1.00, 481.8, 100.0)">t</text><text xml:space="preserve" font-family="Karla-Regular" font-size="22.0" fill="#AEAFAE" transform="matrix(1.00, 0.00, -0.00, -1.00, 491.1, 100.0)"> </text><text xml:space="preserve" font-family="Karla-Regular" font-size="22.0" fill="#AEAFAE" transform="matrix(1.00, 0.00, -0.00, -1.00, 497.5, 100.0)">d</text><text xml:space="preserve" font-family="Karla-Regular" font-size="22.0" fill="#AEAFAE" transform="matrix(1.00, 0.00, -0.00, -1.00, 511.6, 100.0)">i</text><text xml:space="preserve" font-family="Karla-Regular" font-size="22.0" fill="#AEAFAE" transform="matrix(1.00, 0.00, -0.00, -1.00, 519.3, 100.0)">s</text><text xml:space="preserve" font-family="Karla-Regular" font-size="22.0" fill="#AEAFAE" transform="matrix(1.00, 0.00, -0.00, -1.00, 532.0, 100.0)">t</text><text xml:space="preserve" font-family="Karla-Regular" font-size="22.0" fill="#AEAFAE" transform="matrix(1.00, 0.00, -0.00, -1.00, 541.4, 100.0)">r</text><text xml:space="preserve" font-family="Karla-Regular" font-size="22.0" fill="#AEAFAE" transform="matrix(1.00, 0.00, -0.00, -1.00, 550.8, 100.0)">i</text><text xml:space="preserve" font-family="Karla-Regular" font-size="22.0" fill="#AEAFAE" transform="matrix(1.00, 0.00, -0.00, -1.00, 558.5, 100.0)">b</text><text xml:space="preserve" font-family="Karla-Regular" font-size="22.0" fill="#AEAFAE" transform="matrix(1.00, 0.00, -0.00, -1.00, 572.5, 100.0)">u</text><text xml:space="preserve" font-family="Karla-Regular" font-size="22.0" fill="#AEAFAE" transform="matrix(1.00, 0.00, -0.00, -1.00, 586.9, 100.0)">t</text><text xml:space="preserve" font-family="Karla-Regular" font-size="22.0" fill="#AEAFAE" transform="matrix(1.00, 0.00, -0.00, -1.00, 596.3, 100.0)">e</text><g><clipPath id="clip-5"><path d="M 1515.0 95.0 L 1796.0 95.0 L 1796.0 156.0 L 1515.0 156.0 Z M 1515.0 95.0 "></path></clipPath><g clip-path="url(#clip-5)"><path d="M 1544.2 155.5 L 1540.7 117.3 L 1537.7 155.5 L 1530.7 155.5 L 1527.1 117.3 L 1524.2 155.5 L 1515.0 155.5 L 1522.0 95.0 L 1529.7 95.0 L 1533.5 128.3 L 1536.8 95.0 L 1544.7 95.0 L 1552.7 155.5 Z M 1544.2 155.5 " fill="#FFFFFF"></path><path d="M 1565.7 95.0 L 1575.1 95.0 L 1575.1 155.5 L 1565.7 155.5 Z M 1565.7 95.0 " fill="#FFFFFF"></path><path d="M 1589.5 155.5 L 1589.5 146.6 L 1600.3 146.6 L 1588.9 98.2 L 1588.9 95.0 L 1610.1 95.0 L 1610.1 103.9 L 1599.2 103.9 L 1610.7 152.3 L 1610.7 155.5 Z M 1589.5 155.5 " fill="#FFFFFF"></path><path d="M 1624.8 155.5 L 1624.8 95.0 L 1644.5 95.0 L 1644.5 104.0 L 1634.2 104.0 L 1634.2 122.0 L 1641.1 122.0 L 1641.1 130.2 L 1634.2 130.2 L 1634.2 146.8 L 1644.5 146.8 L 1644.5 155.5 Z M 1624.8 155.5 " fill="#FFFFFF"></path><path d="M 1660.1 155.5 L 1660.1 95.0 L 1679.0 95.0 L 1679.0 101.3 L 1666.7 101.3 L 1666.7 155.5 Z M 1660.1 155.5 " fill="#FFFFFF"></path><path d="M 1694.7 95.0 L 1701.4 95.0 L 1701.4 155.5 L 1694.7 155.5 Z M 1694.7 95.0 " fill="#FFFFFF"></path><path d="M 1737.2 155.5 L 1737.2 114.6 L 1734.4 124.4 L 1725.0 155.5 L 1719.0 155.5 L 1719.0 95.0 L 1725.3 95.0 L 1725.3 135.3 L 1728.2 125.6 L 1738.5 95.0 L 1743.4 95.0 L 1743.4 155.5 Z M 1737.2 155.5 " fill="#FFFFFF"></path><path d="M 1761.0 155.5 L 1761.0 95.0 L 1780.4 95.0 L 1780.4 101.1 L 1767.6 101.1 L 1767.6 123.3 L 1776.8 123.3 L 1776.8 129.3 L 1767.6 129.3 L 1767.6 149.4 L 1780.4 149.4 L 1780.4 155.5 Z M 1761.0 155.5 " fill="#FFFFFF"></path></g></g><g><clipPath id="clip-6"><path d="M 1515.0 156.0 L 1796.0 156.0 L 1796.0 95.0 L 1515.0 95.0 Z M 1515.0 156.0 "></path></clipPath><g clip-path="url(#clip-6)"><g><clipPath id="clip-7"><path d="M 1515.0 95.0 L 1796.0 95.0 L 1796.0 156.0 L 1515.0 156.0 Z M 1515.0 95.0 "></path></clipPath><g clip-path="url(#clip-7)"><path d="M 1791.5 152.6 L 1791.8 152.6 C 1792.3 152.6 1792.5 152.6 1792.7 152.7 C 1792.8 152.7 1792.9 152.8 1792.9 152.9 C 1793.0 152.9 1793.0 153.0 1793.0 153.2 C 1793.0 153.3 1793.0 153.4 1792.9 153.4 C 1792.9 153.5 1792.8 153.6 1792.7 153.6 C 1792.5 153.7 1792.3 153.7 1791.8 153.7 L 1791.5 153.7 Z M 1790.7 150.4 L 1790.7 154.3 L 1791.5 154.3 C 1792.2 154.3 1792.6 154.3 1792.7 154.3 C 1793.0 154.3 1793.2 154.2 1793.3 154.1 C 1793.5 154.0 1793.6 153.9 1793.7 153.8 C 1793.8 153.6 1793.8 153.4 1793.8 153.2 C 1793.8 152.9 1793.8 152.7 1793.6 152.5 C 1793.4 152.3 1793.1 152.2 1792.8 152.1 C 1792.9 152.1 1793.0 152.0 1793.1 152.0 C 1793.1 151.9 1793.2 151.8 1793.3 151.7 C 1793.4 151.6 1793.5 151.5 1793.6 151.2 L 1794.1 150.4 L 1793.1 150.4 L 1792.8 151.1 C 1792.6 151.5 1792.4 151.8 1792.2 151.9 C 1792.1 152.0 1791.9 152.0 1791.7 152.0 L 1791.5 152.0 L 1791.5 150.4 Z M 1792.4 155.3 C 1791.9 155.3 1791.4 155.2 1790.9 154.9 C 1790.5 154.7 1790.1 154.3 1789.8 153.8 C 1789.6 153.4 1789.4 152.9 1789.4 152.4 C 1789.4 151.9 1789.6 151.4 1789.8 150.9 C 1790.1 150.5 1790.4 150.1 1790.9 149.9 C 1791.4 149.6 1791.9 149.5 1792.4 149.5 C 1792.9 149.5 1793.4 149.6 1793.8 149.9 C 1794.3 150.1 1794.6 150.5 1794.9 150.9 C 1795.2 151.4 1795.3 151.9 1795.3 152.4 C 1795.3 152.9 1795.2 153.4 1794.9 153.8 C 1794.6 154.3 1794.3 154.7 1793.8 154.9 C 1793.3 155.2 1792.9 155.3 1792.4 155.3 M 1792.4 156.0 C 1793.0 156.0 1793.6 155.8 1794.2 155.5 C 1794.7 155.2 1795.2 154.8 1795.5 154.2 C 1795.8 153.6 1796.0 153.0 1796.0 152.4 C 1796.0 151.8 1795.8 151.2 1795.5 150.6 C 1795.2 150.0 1794.7 149.6 1794.2 149.2 C 1793.6 148.9 1793.0 148.8 1792.4 148.8 C 1791.7 148.8 1791.1 148.9 1790.5 149.2 C 1790.0 149.6 1789.5 150.0 1789.2 150.6 C 1788.9 151.2 1788.7 151.8 1788.7 152.4 C 1788.7 153.0 1788.9 153.6 1789.2 154.2 C 1789.5 154.8 1790.0 155.2 1790.6 155.5 C 1791.1 155.8 1791.7 156.0 1792.4 156.0 " fill="#FFFFFF"></path></g></g></g></g><text xml:space="preserve" font-family="Knockout-HTF48-Featherweight" font-size="120.0" fill="#FEFFFE" transform="matrix(1.00, 0.00, -0.00, -1.00, 1094.8, 742.2)">B</text><text xml:space="preserve" font-family="Knockout-HTF48-Featherweight" font-size="120.0" fill="#FEFFFE" transform="matrix(1.00, 0.00, -0.00, -1.00, 1138.9, 742.2)">u</text><text xml:space="preserve" font-family="Knockout-HTF48-Featherweight" font-size="120.0" fill="#FEFFFE" transform="matrix(1.00, 0.00, -0.00, -1.00, 1177.4, 742.2)">i</text><text xml:space="preserve" font-family="Knockout-HTF48-Featherweight" font-size="120.0" fill="#FEFFFE" transform="matrix(1.00, 0.00, -0.00, -1.00, 1196.3, 742.2)">l</text><text xml:space="preserve" font-family="Knockout-HTF48-Featherweight" font-size="120.0" fill="#FEFFFE" transform="matrix(1.00, 0.00, -0.00, -1.00, 1215.3, 742.2)">d</text><text xml:space="preserve" font-family="Knockout-HTF48-Featherweight" font-size="120.0" fill="#FEFFFE" transform="matrix(1.00, 0.00, -0.00, -1.00, 1253.0, 742.2)">i</text><text xml:space="preserve" font-family="Knockout-HTF48-Featherweight" font-size="120.0" fill="#FEFFFE" transform="matrix(1.00, 0.00, -0.00, -1.00, 1271.9, 742.2)">n</text><text xml:space="preserve" font-family="Knockout-HTF48-Featherweight" font-size="120.0" fill="#FEFFFE" transform="matrix(1.00, 0.00, -0.00, -1.00, 1310.3, 742.2)">g</text><text xml:space="preserve" font-family="Knockout-HTF48-Featherweight" font-size="120.0" fill="#FEFFFE" transform="matrix(1.00, 0.00, -0.00, -1.00, 1347.1, 742.2)"> </text><text xml:space="preserve" font-family="Knockout-HTF48-Featherweight" font-size="120.0" fill="#FEFFFE" transform="matrix(1.00, 0.00, -0.00, -1.00, 1362.9, 742.2)">P</text><text xml:space="preserve" font-family="Knockout-HTF48-Featherweight" font-size="120.0" fill="#FEFFFE" transform="matrix(1.00, 0.00, -0.00, -1.00, 1405.7, 742.2)">H</text><text xml:space="preserve" font-family="Knockout-HTF48-Featherweight" font-size="120.0" fill="#FEFFFE" transform="matrix(1.00, 0.00, -0.00, -1.00, 1453.5, 742.2)">P</text><text xml:space="preserve" font-family="Knockout-HTF48-Featherweight" font-size="120.0" fill="#FEFFFE" transform="matrix(1.00, 0.00, -0.00, -1.00, 1496.3, 742.2)"> </text><text xml:space="preserve" font-family="Knockout-HTF48-Featherweight" font-size="120.0" fill="#FEFFFE" transform="matrix(1.00, 0.00, -0.00, -1.00, 1512.2, 742.2)">C</text><text xml:space="preserve" font-family="Knockout-HTF48-Featherweight" font-size="120.0" fill="#FEFFFE" transform="matrix(1.00, 0.00, -0.00, -1.00, 1556.0, 742.2)">h</text><text xml:space="preserve" font-family="Knockout-HTF48-Featherweight" font-size="120.0" fill="#FEFFFE" transform="matrix(1.00, 0.00, -0.00, -1.00, 1594.3, 742.2)">a</text><text xml:space="preserve" font-family="Knockout-HTF48-Featherweight" font-size="120.0" fill="#FEFFFE" transform="matrix(1.00, 0.00, -0.00, -1.00, 1630.4, 742.2)">t</text><text xml:space="preserve" font-family="Knockout-HTF48-Featherweight" font-size="120.0" fill="#FEFFFE" transform="matrix(1.00, 0.00, -0.00, -1.00, 1654.9, 742.2)">b</text><text xml:space="preserve" font-family="Knockout-HTF48-Featherweight" font-size="120.0" fill="#FEFFFE" transform="matrix(1.00, 0.00, -0.00, -1.00, 1692.5, 742.2)">o</text><text xml:space="preserve" font-family="Knockout-HTF48-Featherweight" font-size="120.0" fill="#FEFFFE" transform="matrix(1.00, 0.00, -0.00, -1.00, 1729.4, 742.2)">t</text><text xml:space="preserve" font-family="Knockout-HTF48-Featherweight" font-size="120.0" fill="#FEFFFE" transform="matrix(1.00, 0.00, -0.00, -1.00, 1753.9, 742.2)">s</text><text xml:space="preserve" font-family="Knockout-HTF48-Featherweight" font-size="80.0" fill="#FEFFFE" transform="matrix(1.00, 0.00, -0.00, -1.00, 1540.4, 890.6)">P</text><text xml:space="preserve" font-family="Knockout-HTF48-Featherweight" font-size="80.0" fill="#FEFFFE" transform="matrix(1.00, 0.00, -0.00, -1.00, 1569.0, 890.6)">H</text><text xml:space="preserve" font-family="Knockout-HTF48-Featherweight" font-size="80.0" fill="#FEFFFE" transform="matrix(1.00, 0.00, -0.00, -1.00, 1600.8, 890.6)">P</text><text xml:space="preserve" font-family="Knockout-HTF48-Featherweight" font-size="80.0" fill="#FEFFFE" transform="matrix(1.00, 0.00, -0.00, -1.00, 1629.4, 890.6)"> </text><text xml:space="preserve" font-family="Knockout-HTF48-Featherweight" font-size="80.0" fill="#FEFFFE" transform="matrix(1.00, 0.00, -0.00, -1.00, 1639.9, 890.6)">J</text><text xml:space="preserve" font-family="Knockout-HTF48-Featherweight" font-size="80.0" fill="#FEFFFE" transform="matrix(1.00, 0.00, -0.00, -1.00, 1667.9, 890.6)">a</text><text xml:space="preserve" font-family="Knockout-HTF48-Featherweight" font-size="80.0" fill="#FEFFFE" transform="matrix(1.00, 0.00, -0.00, -1.00, 1692.0, 890.6)">l</text><text xml:space="preserve" font-family="Knockout-HTF48-Featherweight" font-size="80.0" fill="#FEFFFE" transform="matrix(1.00, 0.00, -0.00, -1.00, 1704.7, 890.6)">i</text><text xml:space="preserve" font-family="Knockout-HTF48-Featherweight" font-size="80.0" fill="#FEFFFE" transform="matrix(1.00, 0.00, -0.00, -1.00, 1717.3, 890.6)">s</text><text xml:space="preserve" font-family="Knockout-HTF48-Featherweight" font-size="80.0" fill="#FEFFFE" transform="matrix(1.00, 0.00, -0.00, -1.00, 1739.9, 890.6)">c</text><text xml:space="preserve" font-family="Knockout-HTF48-Featherweight" font-size="80.0" fill="#FEFFFE" transform="matrix(1.00, 0.00, -0.00, -1.00, 1763.1, 890.6)">o</text><path d="M 0.0 0.0 L 524.5 0.0 " fill="none" stroke="#FEFFFF" stroke-width="3.00" transform="matrix(1.00, 0.00, 0.00, -1.00, 1259.0, 837.0)"></path></g></svg>