<?xml version="1.0" encoding="UTF-8" standalone="no"?><svg xmlns="http://www.w3.org/2000/svg" xmlns:xlink="http://www.w3.org/1999/xlink" clip-rule="evenodd" stroke-miterlimit="4.00" viewBox="0 0 18 159"><desc>SVG generated by Keynote</desc><defs></defs><g transform="matrix(1.00, 0.00, -0.00, -1.00, 0.0, 159.0)"><text xml:space="preserve" font-family="Karla-Regular" font-size="22.0" fill="#000000" transform="matrix(0.00, 1.00, 1.00, -0.00, 16.0, 2.0)">W</text><text xml:space="preserve" font-family="Karla-Regular" font-size="22.0" fill="#000000" transform="matrix(0.00, 1.00, 1.00, -0.00, 16.0, 22.8)">I</text><text xml:space="preserve" font-family="Karla-Regular" font-size="22.0" fill="#000000" transform="matrix(0.00, 1.00, 1.00, -0.00, 16.0, 30.1)">Z</text><text xml:space="preserve" font-family="Karla-Regular" font-size="22.0" fill="#000000" transform="matrix(0.00, 1.00, 1.00, -0.00, 16.0, 44.2)">E</text><text xml:space="preserve" font-family="Karla-Regular" font-size="22.0" fill="#000000" transform="matrix(0.00, 1.00, 1.00, -0.00, 16.0, 57.6)">L</text><text xml:space="preserve" font-family="Karla-Regular" font-size="22.0" fill="#000000" transform="matrix(0.00, 1.00, 1.00, -0.00, 16.0, 69.0)">I</text><text xml:space="preserve" font-family="Karla-Regular" font-size="22.0" fill="#000000" transform="matrix(0.00, 1.00, 1.00, -0.00, 16.0, 76.3)">N</text><text xml:space="preserve" font-family="Karla-Regular" font-size="22.0" fill="#000000" transform="matrix(0.00, 1.00, 1.00, -0.00, 16.0, 92.5)">E</text><text xml:space="preserve" font-family="Karla-Regular" font-size="22.0" fill="#000000" transform="matrix(0.00, 1.00, 1.00, -0.00, 16.0, 105.9)">.</text><text xml:space="preserve" font-family="Karla-Regular" font-size="22.0" fill="#000000" transform="matrix(0.00, 1.00, 1.00, -0.00, 16.0, 111.0)">C</text><text xml:space="preserve" font-family="Karla-Regular" font-size="22.0" fill="#000000" transform="matrix(0.00, 1.00, 1.00, -0.00, 16.0, 125.6)">O</text><text xml:space="preserve" font-family="Karla-Regular" font-size="22.0" fill="#000000" transform="matrix(0.00, 1.00, 1.00, -0.00, 16.0, 140.9)">M</text></g></svg>