<?xml version="1.0" encoding="UTF-8" standalone="no"?><svg xmlns="http://www.w3.org/2000/svg" xmlns:xlink="http://www.w3.org/1999/xlink" clip-rule="evenodd" stroke-miterlimit="4.00" viewBox="0 0 107 150"><desc>SVG generated by Keynote</desc><defs></defs><g transform="matrix(1.00, 0.00, -0.00, -1.00, 0.0, 150.0)"><g><clipPath id="clip-149"><path d="M 0.7 13.4 L 106.4 13.4 L 106.4 149.3 L 0.7 149.3 Z M 0.7 13.4 "></path></clipPath><g clip-path="url(#clip-149)"><image xlink:href="../../3421DF76-6F49-4265-9893-D498D983ED96/assets/907FA418E86967867D88844D0C6ECAE9.png" width="105.00" height="136.00" transform="matrix(1.00, 0.00, -0.00, -1.00, 1.0, 149.0)"></image></g></g><g><clipPath id="clip-150"><path d="M 9.9 0.3 L 37.9 0.3 L 37.9 29.9 L 9.9 29.9 Z M 9.9 0.3 "></path></clipPath><g clip-path="url(#clip-150)"><image xlink:href="../../3421DF76-6F49-4265-9893-D498D983ED96/assets/7F469CA187AF19E784E87BB24966A624.png" width="28.00" height="30.00" transform="matrix(1.00, 0.00, -0.00, -1.00, 10.0, 30.0)"></image></g></g><g><clipPath id="clip-151"><path d="M 52.2 1.3 L 77.6 1.3 L 77.6 28.9 L 52.2 28.9 Z M 52.2 1.3 "></path></clipPath><g clip-path="url(#clip-151)"><image xlink:href="../../3421DF76-6F49-4265-9893-D498D983ED96/assets/B0897209CFE205EE8720633FE6554AD6.png" width="25.00" height="28.00" transform="matrix(1.04, 0.00, -0.00, -1.00, 52.0, 29.0)"></image></g></g></g></svg>