<?xml version="1.0" encoding="UTF-8" standalone="no"?><svg xmlns="http://www.w3.org/2000/svg" xmlns:xlink="http://www.w3.org/1999/xlink" clip-rule="evenodd" stroke-miterlimit="4.00" viewBox="0 0 419 139"><desc>SVG generated by Keynote</desc><defs></defs><g transform="matrix(1.00, 0.00, -0.00, -1.00, 0.0, 139.0)"><text xml:space="preserve" font-family="Montserrat-Regular" font-size="80.0" fill="#FEFFFE" transform="matrix(1.00, 0.00, -0.00, -1.00, -1.0, 80.0)">T</text><text xml:space="preserve" font-family="Montserrat-Regular" font-size="80.0" fill="#FEFFFE" transform="matrix(1.00, 0.00, -0.00, -1.00, 44.9, 80.0)">H</text><text xml:space="preserve" font-family="Montserrat-Regular" font-size="80.0" fill="#FEFFFE" transform="matrix(1.00, 0.00, -0.00, -1.00, 104.7, 80.0)">E</text><text xml:space="preserve" font-family="Montserrat-Regular" font-size="80.0" fill="#FEFFFE" transform="matrix(1.00, 0.00, -0.00, -1.00, 154.6, 80.0)"> </text><text xml:space="preserve" font-family="Montserrat-Regular" font-size="80.0" fill="#FEFFFE" transform="matrix(1.00, 0.00, -0.00, -1.00, 174.1, 80.0)">R</text><text xml:space="preserve" font-family="Montserrat-Regular" font-size="80.0" fill="#FEFFFE" transform="matrix(1.00, 0.00, -0.00, -1.00, 230.0, 80.0)">I</text><text xml:space="preserve" font-family="Montserrat-Regular" font-size="80.0" fill="#FEFFFE" transform="matrix(1.00, 0.00, -0.00, -1.00, 252.5, 80.0)">G</text><text xml:space="preserve" font-family="Montserrat-Regular" font-size="80.0" fill="#FEFFFE" transform="matrix(1.00, 0.00, -0.00, -1.00, 310.7, 80.0)">H</text><text xml:space="preserve" font-family="Montserrat-Regular" font-size="80.0" fill="#FEFFFE" transform="matrix(1.00, 0.00, -0.00, -1.00, 370.4, 80.0)">T</text><text xml:space="preserve" font-family="Montserrat-Regular" font-size="80.0" fill="#FEFFFE" transform="matrix(1.00, 0.00, -0.00, -1.00, 416.4, 80.0)"> </text><text xml:space="preserve" font-family="Montserrat-Regular" font-size="80.0" fill="#FEFFFE" transform="matrix(1.00, 0.00, -0.00, -1.00, 118.0, 2.0)">W</text><text xml:space="preserve" font-family="Montserrat-Regular" font-size="80.0" fill="#FEFFFE" transform="matrix(1.00, 0.00, -0.00, -1.00, 196.8, 2.0)">A</text><text xml:space="preserve" font-family="Montserrat-Regular" font-size="80.0" fill="#FEFFFE" transform="matrix(1.00, 0.00, -0.00, -1.00, 249.7, 2.0)">Y</text></g></svg>