<?xml version="1.0" encoding="UTF-8" standalone="no"?><svg xmlns="http://www.w3.org/2000/svg" xmlns:xlink="http://www.w3.org/1999/xlink" clip-rule="evenodd" stroke-miterlimit="4.00" viewBox="0 0 1560 89"><desc>SVG generated by Keynote</desc><defs></defs><g transform="matrix(1.00, 0.00, -0.00, -1.00, 0.0, 89.0)"><image xlink:href="66F754A636488A7CE84777592FB367FE.png" width="1553.00" height="83.00" transform="matrix(1.00, 0.00, -0.00, -1.00, 5.0, 85.0)"></image><text xml:space="preserve" font-family="FiraCode-Bold" font-weight="bold" font-size="79.0" fill="#FEFFFE" transform="matrix(1.00, 0.00, -0.00, -1.00, -5.0, 23.0)">i</text><text xml:space="preserve" font-family="FiraCode-Bold" font-weight="bold" font-size="79.0" fill="#FEFFFE" transform="matrix(1.00, 0.00, -0.00, -1.00, 42.4, 23.0)">n</text><text xml:space="preserve" font-family="FiraCode-Bold" font-weight="bold" font-size="79.0" fill="#FEFFFE" transform="matrix(1.00, 0.00, -0.00, -1.00, 89.8, 23.0)">t</text><text xml:space="preserve" font-family="FiraCode-Bold" font-weight="bold" font-size="79.0" fill="#FEFFFE" transform="matrix(1.00, 0.00, -0.00, -1.00, 137.2, 23.0)">r</text><text xml:space="preserve" font-family="FiraCode-Bold" font-weight="bold" font-size="79.0" fill="#FEFFFE" transform="matrix(1.00, 0.00, -0.00, -1.00, 184.6, 23.0)">o</text><text xml:space="preserve" font-family="FiraCode-Bold" font-weight="bold" font-size="79.0" fill="#FEFFFE" transform="matrix(1.00, 0.00, -0.00, -1.00, 232.0, 23.0)">/</text><text xml:space="preserve" font-family="FiraCode-Bold" font-weight="bold" font-size="79.0" fill="#FEFFFE" transform="matrix(1.00, 0.00, -0.00, -1.00, 279.4, 23.0)">b</text><text xml:space="preserve" font-family="FiraCode-Bold" font-weight="bold" font-size="79.0" fill="#FEFFFE" transform="matrix(1.00, 0.00, -0.00, -1.00, 326.8, 23.0)">o</text><text xml:space="preserve" font-family="FiraCode-Bold" font-weight="bold" font-size="79.0" fill="#FEFFFE" transform="matrix(1.00, 0.00, -0.00, -1.00, 374.2, 23.0)">t</text><text xml:space="preserve" font-family="FiraCode-Bold" font-weight="bold" font-size="79.0" fill="#FEFFFE" transform="matrix(1.00, 0.00, -0.00, -1.00, 421.6, 23.0)">m</text><text xml:space="preserve" font-family="FiraCode-Bold" font-weight="bold" font-size="79.0" fill="#FEFFFE" transform="matrix(1.00, 0.00, -0.00, -1.00, 469.0, 23.0)">a</text><text xml:space="preserve" font-family="FiraCode-Bold" font-weight="bold" font-size="79.0" fill="#FEFFFE" transform="matrix(1.00, 0.00, -0.00, -1.00, 516.4, 23.0)">n</text><text xml:space="preserve" font-family="FiraCode-Bold" font-weight="bold" font-size="79.0" fill="#FEFFFE" transform="matrix(1.00, 0.00, -0.00, -1.00, 563.8, 23.0)">-</text><text xml:space="preserve" font-family="FiraCode-Bold" font-weight="bold" font-size="79.0" fill="#FEFFFE" transform="matrix(1.00, 0.00, -0.00, -1.00, 611.2, 23.0)">a</text><text xml:space="preserve" font-family="FiraCode-Bold" font-weight="bold" font-size="79.0" fill="#FEFFFE" transform="matrix(1.00, 0.00, -0.00, -1.00, 658.6, 23.0)">n</text><text xml:space="preserve" font-family="FiraCode-Bold" font-weight="bold" font-size="79.0" fill="#FEFFFE" transform="matrix(1.00, 0.00, -0.00, -1.00, 706.0, 23.0)">d</text><text xml:space="preserve" font-family="FiraCode-Bold" font-weight="bold" font-size="79.0" fill="#FEFFFE" transform="matrix(1.00, 0.00, -0.00, -1.00, 753.4, 23.0)">-</text><text xml:space="preserve" font-family="FiraCode-Bold" font-weight="bold" font-size="79.0" fill="#FEFFFE" transform="matrix(1.00, 0.00, -0.00, -1.00, 800.8, 23.0)">a</text><text xml:space="preserve" font-family="FiraCode-Bold" font-weight="bold" font-size="79.0" fill="#FEFFFE" transform="matrix(1.00, 0.00, -0.00, -1.00, 848.2, 23.0)">p</text><text xml:space="preserve" font-family="FiraCode-Bold" font-weight="bold" font-size="79.0" fill="#FEFFFE" transform="matrix(1.00, 0.00, -0.00, -1.00, 895.6, 23.0)">i</text><text xml:space="preserve" font-family="FiraCode-Bold" font-weight="bold" font-size="79.0" fill="#FEFFFE" transform="matrix(1.00, 0.00, -0.00, -1.00, 943.0, 23.0)">-</text><text xml:space="preserve" font-family="FiraCode-Bold" font-weight="bold" font-size="79.0" fill="#FEFFFE" transform="matrix(1.00, 0.00, -0.00, -1.00, 990.4, 23.0)">c</text><text xml:space="preserve" font-family="FiraCode-Bold" font-weight="bold" font-size="79.0" fill="#FEFFFE" transform="matrix(1.00, 0.00, -0.00, -1.00, 1037.8, 23.0)">o</text><text xml:space="preserve" font-family="FiraCode-Bold" font-weight="bold" font-size="79.0" fill="#FEFFFE" transform="matrix(1.00, 0.00, -0.00, -1.00, 1085.2, 23.0)">n</text><text xml:space="preserve" font-family="FiraCode-Bold" font-weight="bold" font-size="79.0" fill="#FEFFFE" transform="matrix(1.00, 0.00, -0.00, -1.00, 1132.6, 23.0)">v</text><text xml:space="preserve" font-family="FiraCode-Bold" font-weight="bold" font-size="79.0" fill="#FEFFFE" transform="matrix(1.00, 0.00, -0.00, -1.00, 1180.0, 23.0)">e</text><text xml:space="preserve" font-family="FiraCode-Bold" font-weight="bold" font-size="79.0" fill="#FEFFFE" transform="matrix(1.00, 0.00, -0.00, -1.00, 1227.4, 23.0)">r</text><text xml:space="preserve" font-family="FiraCode-Bold" font-weight="bold" font-size="79.0" fill="#FEFFFE" transform="matrix(1.00, 0.00, -0.00, -1.00, 1274.8, 23.0)">s</text><text xml:space="preserve" font-family="FiraCode-Bold" font-weight="bold" font-size="79.0" fill="#FEFFFE" transform="matrix(1.00, 0.00, -0.00, -1.00, 1322.2, 23.0)">a</text><text xml:space="preserve" font-family="FiraCode-Bold" font-weight="bold" font-size="79.0" fill="#FEFFFE" transform="matrix(1.00, 0.00, -0.00, -1.00, 1369.6, 23.0)">t</text><text xml:space="preserve" font-family="FiraCode-Bold" font-weight="bold" font-size="79.0" fill="#FEFFFE" transform="matrix(1.00, 0.00, -0.00, -1.00, 1417.0, 23.0)">i</text><text xml:space="preserve" font-family="FiraCode-Bold" font-weight="bold" font-size="79.0" fill="#FEFFFE" transform="matrix(1.00, 0.00, -0.00, -1.00, 1464.4, 23.0)">o</text><text xml:space="preserve" font-family="FiraCode-Bold" font-weight="bold" font-size="79.0" fill="#FEFFFE" transform="matrix(1.00, 0.00, -0.00, -1.00, 1511.8, 23.0)">n</text></g></svg>