<?xml version="1.0" encoding="UTF-8" standalone="no"?><svg xmlns="http://www.w3.org/2000/svg" xmlns:xlink="http://www.w3.org/1999/xlink" clip-rule="evenodd" stroke-miterlimit="4.00" viewBox="0 0 64 65"><desc>SVG generated by Keynote</desc><defs></defs><g transform="matrix(1.00, 0.00, -0.00, -1.00, 0.0, 65.0)"><g><clipPath id="clip-146"><path d="M 1.0 63.0 L 63.0 63.0 L 63.0 2.0 L 1.0 2.0 Z M 1.3 63.0 "></path></clipPath><g clip-path="url(#clip-146)"><g><clipPath id="clip-147"><path d="M 1.0 63.0 L 63.0 63.0 L 63.0 2.0 L 1.0 2.0 Z M 1.0 63.0 "></path></clipPath><g clip-path="url(#clip-147)"><g><clipPath id="clip-148"><path d="M 1.0 2.0 L 63.0 2.0 L 63.0 63.0 L 1.0 63.0 Z M 1.0 2.0 "></path></clipPath><g clip-path="url(#clip-148)"><path d="M 32.0 6.5 C 18.4 6.5 7.1 16.8 5.8 29.8 L 16.2 29.8 L 22.8 18.4 C 23.2 17.7 24.0 17.2 24.8 17.2 C 24.8 17.2 24.9 17.2 24.9 17.2 C 25.8 17.3 26.6 17.8 26.9 18.6 L 36.9 40.3 L 41.8 30.9 C 42.2 30.1 42.9 29.7 43.8 29.7 L 43.8 29.7 C 43.8 29.7 52.7 29.7 58.2 29.7 C 56.8 16.7 45.6 6.5 32.0 6.5 M 32.0 58.5 C 46.0 58.5 57.4 47.7 58.3 34.2 C 54.2 34.2 48.0 34.2 45.2 34.2 L 38.8 46.5 C 38.4 47.3 37.6 47.8 36.7 47.8 C 35.8 47.8 35.0 47.2 34.6 46.4 L 24.6 24.5 L 19.6 33.2 C 19.1 33.9 18.4 34.3 17.5 34.3 L 5.7 34.3 C 6.6 47.8 18.1 58.5 32.0 58.5 M 32.0 63.0 C 14.9 63.0 1.0 49.3 1.0 32.5 C 1.0 15.7 14.9 2.0 32.0 2.0 C 49.1 2.0 63.0 15.7 63.0 32.5 C 63.0 49.3 49.1 63.0 32.0 63.0 " fill="#FFFFFF"></path></g></g></g></g></g></g></g></svg>