<?xml version="1.0" encoding="UTF-8" standalone="no"?><svg xmlns="http://www.w3.org/2000/svg" xmlns:xlink="http://www.w3.org/1999/xlink" clip-rule="evenodd" stroke-miterlimit="4.00" viewBox="0 0 1920 1080"><desc>SVG generated by Keynote</desc><defs></defs><g transform="matrix(1.00, 0.00, -0.00, -1.00, 0.0, 1080.0)"><path d="M 0.0 1080.0 L 1920.0 1080.0 L 1920.0 0.0 L 0.0 0.0 Z M 0.0 1080.0 " fill="#FEFFFE"></path><g><clipPath id="clip-72"><path d="M 0.0 1080.0 L 1920.0 1080.0 L 1920.0 0.0 L 0.0 0.0 Z M 0.0 1080.0 "></path></clipPath><g clip-path="url(#clip-72)"><image xlink:href="../../BC6A2508-F43E-4C08-885D-9AAF49362DD0/assets/768735C7C2F364F00E9EA407402C42BD.jpeg" width="1365.00" height="767.00" transform="matrix(1.41, 0.00, -0.00, -1.41, 0.0, 1080.0)"></image></g></g><path d="M 0.0 0.0 L 599.7 0.0 " fill="none" stroke="#FDFDFC" stroke-width="4.00" transform="matrix(1.00, 0.00, 0.00, -1.00, 660.1, 634.1)"></path><path d="M 0.0 0.0 L 599.7 0.0 " fill="none" stroke="#FDFDFC" stroke-width="4.00" transform="matrix(1.00, 0.00, 0.00, -1.00, 660.1, 408.1)"></path><text xml:space="preserve" font-family="Knockout-HTF29-JuniorLiteweight" font-size="112.0" fill="#FEFFFE" transform="matrix(1.00, 0.00, -0.00, -1.00, 679.0, 533.0)">L</text><text xml:space="preserve" font-family="Knockout-HTF29-JuniorLiteweight" font-size="112.0" fill="#FEFFFE" transform="matrix(1.00, 0.00, -0.00, -1.00, 717.4, 533.0)">E</text><text xml:space="preserve" font-family="Knockout-HTF29-JuniorLiteweight" font-size="112.0" fill="#FEFFFE" transform="matrix(1.00, 0.00, -0.00, -1.00, 758.1, 533.0)">T</text><text xml:space="preserve" font-family="Knockout-HTF29-JuniorLiteweight" font-size="112.0" fill="#FEFFFE" transform="matrix(1.00, 0.00, -0.00, -1.00, 798.8, 533.0)">S</text><text xml:space="preserve" font-family="Knockout-HTF29-JuniorLiteweight" font-size="112.0" fill="#FEFFFE" transform="matrix(1.00, 0.00, -0.00, -1.00, 843.3, 533.0)"> </text><text xml:space="preserve" font-family="Knockout-HTF29-JuniorLiteweight" font-size="112.0" fill="#FEFFFE" transform="matrix(1.00, 0.00, -0.00, -1.00, 858.3, 533.0)">G</text><text xml:space="preserve" font-family="Knockout-HTF29-JuniorLiteweight" font-size="112.0" fill="#FEFFFE" transform="matrix(1.00, 0.00, -0.00, -1.00, 905.7, 533.0)">I</text><text xml:space="preserve" font-family="Knockout-HTF29-JuniorLiteweight" font-size="112.0" fill="#FEFFFE" transform="matrix(1.00, 0.00, -0.00, -1.00, 925.0, 533.0)">V</text><text xml:space="preserve" font-family="Knockout-HTF29-JuniorLiteweight" font-size="112.0" fill="#FEFFFE" transform="matrix(1.00, 0.00, -0.00, -1.00, 969.6, 533.0)">E</text><text xml:space="preserve" font-family="Knockout-HTF29-JuniorLiteweight" font-size="112.0" fill="#FEFFFE" transform="matrix(1.00, 0.00, -0.00, -1.00, 1010.3, 533.0)"> </text><text xml:space="preserve" font-family="Knockout-HTF29-JuniorLiteweight" font-size="112.0" fill="#FEFFFE" transform="matrix(1.00, 0.00, -0.00, -1.00, 1025.3, 533.0)">T</text><text xml:space="preserve" font-family="Knockout-HTF29-JuniorLiteweight" font-size="112.0" fill="#FEFFFE" transform="matrix(1.00, 0.00, -0.00, -1.00, 1066.1, 533.0)">H</text><text xml:space="preserve" font-family="Knockout-HTF29-JuniorLiteweight" font-size="112.0" fill="#FEFFFE" transform="matrix(1.00, 0.00, -0.00, -1.00, 1117.1, 533.0)">A</text><text xml:space="preserve" font-family="Knockout-HTF29-JuniorLiteweight" font-size="112.0" fill="#FEFFFE" transform="matrix(1.00, 0.00, -0.00, -1.00, 1160.5, 533.0)">T</text><text xml:space="preserve" font-family="Knockout-HTF29-JuniorLiteweight" font-size="112.0" fill="#FEFFFE" transform="matrix(1.00, 0.00, -0.00, -1.00, 1201.3, 533.0)"> </text><text xml:space="preserve" font-family="Knockout-HTF29-JuniorLiteweight" font-size="112.0" fill="#FEFFFE" transform="matrix(1.00, 0.00, -0.00, -1.00, 1216.3, 533.0)"> </text><text xml:space="preserve" font-family="Knockout-HTF29-JuniorLiteweight" font-size="112.0" fill="#FEFFFE" transform="matrix(1.00, 0.00, -0.00, -1.00, 846.0, 440.0)">A</text><text xml:space="preserve" font-family="Knockout-HTF29-JuniorLiteweight" font-size="112.0" fill="#FEFFFE" transform="matrix(1.00, 0.00, -0.00, -1.00, 889.3, 440.0)"> </text><text xml:space="preserve" font-family="Knockout-HTF29-JuniorLiteweight" font-size="112.0" fill="#FEFFFE" transform="matrix(1.00, 0.00, -0.00, -1.00, 904.4, 440.0)">T</text><text xml:space="preserve" font-family="Knockout-HTF29-JuniorLiteweight" font-size="112.0" fill="#FEFFFE" transform="matrix(1.00, 0.00, -0.00, -1.00, 945.1, 440.0)">R</text><text xml:space="preserve" font-family="Knockout-HTF29-JuniorLiteweight" font-size="112.0" fill="#FEFFFE" transform="matrix(1.00, 0.00, -0.00, -1.00, 992.3, 440.0)">Y</text></g></svg>