<?xml version="1.0" encoding="UTF-8" standalone="no"?><svg xmlns="http://www.w3.org/2000/svg" xmlns:xlink="http://www.w3.org/1999/xlink" clip-rule="evenodd" stroke-miterlimit="4.00" viewBox="0 0 1920 1080"><desc>SVG generated by Keynote</desc><defs></defs><g transform="matrix(1.00, 0.00, -0.00, -1.00, 0.0, 1080.0)"><path d="M 0.0 1080.0 L 1920.0 1080.0 L 1920.0 0.0 L 0.0 0.0 Z M 0.0 1080.0 " fill="#FEFFFF"></path><g opacity="0.20"><g><clipPath id="clip-67"><path d="M 0.0 0.0 L 961.0 0.0 L 961.0 1080.0 L 0.0 1080.0 Z M 0.0 0.0 "></path></clipPath><g clip-path="url(#clip-67)"><path d="M -8.6 1081.0 L 959.5 1081.0 L 959.5 -1.0 L -8.6 -1.0 Z M -8.6 1081.0 " fill="#4F5360"></path></g></g></g><g><clipPath id="clip-68"><path d="M 1103.8 1080.0 L 961.0 1222.8 L 818.2 1080.0 L 961.0 937.2 Z M 1103.8 1080.0 "></path></clipPath><g clip-path="url(#clip-68)"><path d="M 1102.4 1080.0 L 961.0 938.6 L 819.6 1080.0 L 1102.4 1080.0 Z M 1102.4 1080.0 " fill="#EA3C43"></path></g></g><g><clipPath id="clip-69"><path d="M 930.0 1040.0 L 992.0 1040.0 L 992.0 979.0 L 930.0 979.0 Z M 930.0 1040.0 "></path></clipPath><g clip-path="url(#clip-69)"><g><clipPath id="clip-70"><path d="M 930.3 979.0 L 991.7 979.0 L 991.7 1040.0 L 930.3 1040.0 Z M 930.3 979.0 "></path></clipPath><g clip-path="url(#clip-70)"><path d="M 961.0 983.5 C 947.4 983.5 936.1 993.8 934.8 1006.8 L 945.2 1006.8 L 951.8 995.4 C 952.2 994.7 953.0 994.2 953.8 994.2 C 953.8 994.2 953.9 994.2 953.9 994.2 C 954.8 994.3 955.6 994.8 955.9 995.6 L 965.9 1017.3 L 970.8 1007.9 C 971.2 1007.1 971.9 1006.7 972.8 1006.7 L 972.8 1006.7 C 972.8 1006.7 981.7 1006.7 987.2 1006.7 C 985.8 993.7 974.6 983.5 961.0 983.5 M 961.0 1035.5 C 975.0 1035.5 986.4 1024.7 987.3 1011.2 C 983.2 1011.2 977.0 1011.2 974.2 1011.2 L 967.8 1023.5 C 967.4 1024.3 966.6 1024.8 965.7 1024.8 C 964.8 1024.8 964.0 1024.2 963.6 1023.4 L 953.6 1001.5 L 948.6 1010.2 C 948.1 1010.9 947.4 1011.3 946.5 1011.3 L 934.7 1011.3 C 935.6 1024.8 947.1 1035.5 961.0 1035.5 M 961.0 1040.0 C 943.9 1040.0 930.0 1026.3 930.0 1009.5 C 930.0 992.7 943.9 979.0 961.0 979.0 C 978.1 979.0 992.0 992.7 992.0 1009.5 C 992.0 1026.3 978.1 1040.0 961.0 1040.0 " fill="#FFFFFF"></path></g></g></g></g><image xlink:href="../../4D6DAE23-A704-4D9A-B1EE-D8078CC87E49/assets/16FA4E06601F4F0C9695EE90D2F1A0B0.png" width="513.00" height="353.00" transform="matrix(1.00, 0.00, -0.00, -1.00, 47.2, 928.3)" opacity="0.60"></image><image xlink:href="../../4D6DAE23-A704-4D9A-B1EE-D8078CC87E49/assets/E16A4E897A491F0771F03B9763D1067B.png" width="484.00" height="323.00" transform="matrix(1.00, 0.00, -0.00, -1.00, 63.0, 922.0)"></image><image xlink:href="../../1D2432D0-3663-4F07-BA54-0953602BBE42/assets/34CB7E554B4E431966B67CF6C8CB1FD2.png" width="1684.00" height="1073.00" transform="matrix(1.00, 0.00, -0.00, -1.00, 996.1, 981.6)" opacity="0.60"></image><g><clipPath id="clip-71"><path d="M 1013.0 975.0 L 2667.0 975.0 L 2667.0 -68.0 L 1013.0 -68.0 Z M 1012.9 975.4 "></path></clipPath><g clip-path="url(#clip-71)"><image xlink:href="../../1D2432D0-3663-4F07-BA54-0953602BBE42/assets/CAAC1E8766EBC67CAC97AFF55252B230.png" width="1177.00" height="768.00" transform="matrix(1.41, 0.00, -0.00, -1.41, 1013.0, 1036.0)"></image></g></g><path d="M 934.1 771.2 L 934.1 771.2 L 1007.9 816.9 L 934.1 862.5 L 934.1 862.5 L 563.1 862.5 L 563.1 771.2 Z M 934.1 771.2 " fill="#EA3D44"></path><image xlink:href="../../1D2432D0-3663-4F07-BA54-0953602BBE42/assets/8E2A2929A00FF50CCC0E985F8E61BA0E.png" width="540.00" height="371.00" transform="matrix(1.00, 0.00, -0.00, -1.00, 33.8, 486.1)" opacity="0.60"></image><image xlink:href="../../1D2432D0-3663-4F07-BA54-0953602BBE42/assets/7ACF4DAFADEFA953511795FC5727DAFC.png" width="510.00" height="341.00" transform="matrix(1.00, 0.00, -0.00, -1.00, 49.0, 480.0)"></image><path d="M 638.1 476.2 L 638.1 476.2 L 565.4 431.3 L 638.1 386.3 L 638.1 386.3 L 1006.5 386.3 L 1006.5 476.2 Z M 638.1 476.2 " fill="#000000"></path></g></svg>